<svg xmlns="http://www.w3.org/2000/svg" xmlns:xlink="http://www.w3.org/1999/xlink" width="600" height="600" viewBox="0 0 600 600"><defs><clipPath id="a"><path d="M317.78,506.57s36.59,36,63.25,35.21c12.54-.37,13.41-1.84,16.55-12.38,0,0,18.95,9.23,30.92,0s3.56-35.81,3.56-35.81,33.23,25.72,61.23,3.4c19.57-15.6,6.19-44.86,6.19-44.86s45.6,1.42,49.75-23.87c9.72-59.21-19-63.13-19-63.13L376.07,184.08s-79,34-96.5,14.61-32.88-35.94-32.88-35.94L122.28,297,204,379.25" style="fill:#ffc9ae"/></clipPath><clipPath id="b"><path d="M289.76,186.74a17.13,17.13,0,0,0-6.83,6.33c-9,14.7-37.31,63.58-18.5,67.67,22.18,4.82,76.16-36.63,76.16-36.63l29.88,4.82L516.09,383.76l83.65-80.19L506.39,178.81l-41.45,17.35s-80.75-46.35-101-42C347,157.87,303.52,179.7,289.76,186.74Z" style="fill:#ffad94"/></clipPath><clipPath id="c"><path d="M215.59,413.06s-6.17,14.61,7,30.48,41.42,7.09,72.27-42.94S285.21,340.72,215.59,413.06Z" style="fill:#ffad94"/></clipPath><clipPath id="d"><path d="M256.24,447.68s-6.75,16,7.71,33.33,45.31,7.77,79.05-47S332.4,368.55,256.24,447.68Z" style="fill:#ffad94"/></clipPath><clipPath id="e"><path d="M298.52,486.27s-2.1,12.33,10.91,22.13,33.08-2,47.73-46S338.91,418.17,298.52,486.27Z" style="fill:#ffad94"/></clipPath></defs><path d="M78.86,216.79H106.3a38.6,38.6,0,0,1,27.29,11.31l43.19,43.19" style="fill:none;stroke:#ffd731;stroke-miterlimit:10;stroke-width:3px"/><line x1="61.3" y1="443.31" x2="217.31" y2="287.31" style="fill:none;stroke:#fd8015;stroke-miterlimit:10;stroke-width:2px"/><circle cx="51.52" cy="443.31" r="50.7" style="fill:#fd8015"/><path d="M210.41,262.15,130.26,182a43.15,43.15,0,0,1,0-61l65.52-65.52" style="fill:none;stroke:#5fbffd;stroke-miterlimit:10;stroke-width:2px"/><path d="M317.78,506.57s36.59,36,63.25,35.21c12.54-.37,13.41-1.84,16.55-12.38,0,0,18.95,9.23,30.92,0s3.56-35.81,3.56-35.81,33.23,25.72,61.23,3.4c19.57-15.6,6.19-44.86,6.19-44.86s45.6,1.42,49.75-23.87c9.72-59.21-19-63.13-19-63.13L376.07,184.08s-79,34-96.5,14.61-32.88-35.94-32.88-35.94L122.28,297,204,379.25" style="fill:#ffc9ae"/><g style="clip-path:url(#a)"><path d="M314.9,507.35s31.7,26.61,72.23,13.34c16.11-5.27,25.67-12.31,34.08-15.69,3.7-1.49-40.37-58-36.36-59.12s46.69,52.13,51,51.5c25.89-3.82,61.26-11.94,50.07-33.08-9.39-17.73-54.81-62.64-53.22-65.28,4.94-8.15,56.64,55.12,67.83,48.59,43.83-25.57,0-102.78,0-102.78l83.22,50.6L582.16,476s-58.69,61.05-65.74,63.39-100.95,32.09-104.87,32.09-54.73-26.42-54.73-26.42" style="fill:#f78272;opacity:0.30000000000000004"/><path d="M428.93,394.08s91.4,75.51,115.67,94.79" style="fill:none;stroke:#f78272;stroke-linecap:round;stroke-miterlimit:10;stroke-width:3px"/><path d="M382.21,443.17S464.72,528,486.29,545.3" style="fill:none;stroke:#f78272;stroke-linecap:round;stroke-miterlimit:10;stroke-width:3px"/><path d="M343,481.05s60.74,55.62,72.13,62.69" style="fill:none;stroke:#f78272;stroke-linecap:round;stroke-miterlimit:10;stroke-width:3px"/><path d="M93.82,261.61s120.52,115.22,152.6,104.56,60.7-9.69,61.66,0-39.74,52.52-39.74,52.52,57.08-47.7,72.78-37.86-5.73,55.36,1.88,53.22S372.92,426,369.93,444s-71.54,74.34-71.54,74.34L172.86,431.83,108.68,327.15Z" style="fill:#f78272;opacity:0.15"/><path d="M268.67,186.69S268,188,267,190.2c-6.54,14.19-32.8,73.2-7.24,71.85,29.56-1.56,34-20.26,80.57-18s118.92,43.22,118.92,43.22l5.51-111.22L363.41,115l-91.94,68.33" style="fill:#f78272;opacity:0.15"/></g><path d="M289.76,186.74a17.13,17.13,0,0,0-6.83,6.33c-9,14.7-37.31,63.58-18.5,67.67,22.18,4.82,76.16-36.63,76.16-36.63l29.88,4.82L516.09,383.76l83.65-80.19L506.39,178.81l-41.45,17.35s-80.75-46.35-101-42C347,157.87,303.52,179.7,289.76,186.74Z" style="fill:#ffad94"/><g style="clip-path:url(#b)"><path d="M247.63,258.58s18.86-11.42,53.12-40.85,80.84-11.12,100.41,2.1,29.84,60,70.4,72.84,88.9,81.36,60,107.93-122-46.26-122-46.26L254.14,258.58" style="fill:#f78272;opacity:0.5"/></g><path d="M179.46,352.32S171.53,393.74,191.8,399s54.64-3.52,44.94-15.86-28.56-16.69-28.56-16.69Z" style="fill:#ffad94"/><path d="M215.59,413.06s-6.17,14.61,7,30.48,41.42,7.09,72.27-42.94S285.21,340.72,215.59,413.06Z" style="fill:#ffad94"/><g style="clip-path:url(#c)"><path d="M224.06,453.72s79.35-65.87,97.36-111.44-29.27,143.29-94.19,140.56-21.12-32.46-21.12-32.46" style="fill:#f78272;opacity:0.5"/></g><path d="M256.24,447.68s-6.75,16,7.71,33.33,45.31,7.77,79.05-47S332.4,368.55,256.24,447.68Z" style="fill:#ffad94"/><g style="clip-path:url(#d)"><path d="M263.79,499.1s47.81-36.79,57.63-64.23,33-55.55,38-58.45c.46-.27-15.25,105.23-50.47,117.77S263.79,499.1,263.79,499.1Z" style="fill:#f78272;opacity:0.5"/></g><path d="M298.52,486.27s-2.1,12.33,10.91,22.13,33.08-2,47.73-46S338.91,418.17,298.52,486.27Z" style="fill:#ffad94"/><g style="clip-path:url(#e)"><path d="M290.05,519.46c1.68-.47,63.92-48.77,69.36-68.74s19.47-4,19.47-4l0,76.46s-61.54,13.06-63.85,13.06S290.05,519.46,290.05,519.46Z" style="fill:#f78272;opacity:0.5"/></g><path d="M381,357.35s3.65,16.69,16.18,23.48" style="fill:none;stroke:#f78272;stroke-linecap:round;stroke-miterlimit:10;stroke-width:3px"/><path d="M356.82,390.66s3,13.6,13.18,19.13" style="fill:none;stroke:#f78272;stroke-linecap:round;stroke-miterlimit:10;stroke-width:3px"/><circle cx="202.5" cy="52.28" r="50.7" style="fill:#5fbffd"/><path d="M237.51,74.3l-2-1.14a10.66,10.66,0,0,0,0-3.19l2-1.14a1.44,1.44,0,0,0,.53-2l-2.87-5h0a1.43,1.43,0,0,0-2-.52l-2,1.16a11.64,11.64,0,0,0-2.72-1.6v-2.3A1.44,1.44,0,0,0,227,57.2h-5.75a1.44,1.44,0,0,0-1.44,1.43v2.3a11.64,11.64,0,0,0-2.72,1.6l-2-1.16a1.45,1.45,0,0,0-2,.52l-2.87,5a1.44,1.44,0,0,0,.52,2l2,1.14a11,11,0,0,0,0,3.19l-2,1.14a1.45,1.45,0,0,0-.52,2l2.87,5a1.44,1.44,0,0,0,2,.52l2-1.16a11.64,11.64,0,0,0,2.72,1.6v2.3a1.44,1.44,0,0,0,1.44,1.43H227a1.43,1.43,0,0,0,1.43-1.43V82.2a11.56,11.56,0,0,0,2.73-1.6l2,1.16a1.45,1.45,0,0,0,2-.52l2.87-5A1.44,1.44,0,0,0,237.51,74.3Zm-7.6-2.73a5.75,5.75,0,1,1-5.75-5.75A5.75,5.75,0,0,1,229.91,71.57Z" style="fill:#fff"/><path d="M217.47,42.47l-3.93-1.13a19.46,19.46,0,0,0-1.38-5.56l2.94-2.84a2.57,2.57,0,0,0,.06-3.64L208,21.89h0a2.57,2.57,0,0,0-3.64-.06l-3,2.88a20.56,20.56,0,0,0-5.43-1.6l-1-4a2.58,2.58,0,0,0-3.12-1.88l-10,2.49A2.58,2.58,0,0,0,180,22.84l1,4a20.54,20.54,0,0,0-4,4l-4-1.15a2.57,2.57,0,0,0-3.19,1.76l-2.85,9.9a2.59,2.59,0,0,0,1.76,3.19l3.93,1.13a19.78,19.78,0,0,0,1.37,5.56L171,54a2.6,2.6,0,0,0-.07,3.65l7.15,7.41a2.61,2.61,0,0,0,3.65.06l3-2.88a20.94,20.94,0,0,0,5.43,1.6l1,4a2.58,2.58,0,0,0,3.12,1.88l10-2.49a2.58,2.58,0,0,0,1.88-3.12l-1-4a21.09,21.09,0,0,0,4-4l4,1.15a2.58,2.58,0,0,0,3.19-1.76l2.85-9.9A2.58,2.58,0,0,0,217.47,42.47ZM203.05,41a10.3,10.3,0,1,1-12.49-7.52A10.32,10.32,0,0,1,203.05,41Z" style="fill:#fff"/><path d="M89.87,449.13a13.83,13.83,0,0,0-16.11-13.68A22.74,22.74,0,0,0,31.27,430c-.51,0-1-.07-1.54-.07A16.55,16.55,0,0,0,28.8,463v0H76.94v0A13.86,13.86,0,0,0,89.87,449.13Z" style="fill:#fff"/><circle cx="55.1" cy="217.33" r="53.96" style="fill:#ffd731"/><path d="M83.63,195h-59a1,1,0,0,0-1,1v46.35a1,1,0,0,0,1,1.05h59a1.06,1.06,0,0,0,1.06-1.05V196.07A1.06,1.06,0,0,0,83.63,195Zm-4.21,7.37a2.11,2.11,0,1,1-2.11-2.1A2.1,2.1,0,0,1,79.42,202.39Zm-6.32,0a2.11,2.11,0,1,1-2.11-2.1A2.1,2.1,0,0,1,73.1,202.39Zm-6.32,0a2.11,2.11,0,1,1-2.11-2.1A2.1,2.1,0,0,1,66.78,202.39ZM29.05,238.86v-31.2H78.4v31.2Z" style="fill:#fff"/><path d="M56.8,232H44.43a1.06,1.06,0,0,0,0,2.11H56.8a1.06,1.06,0,0,0,0-2.11Z" style="fill:#fff"/><path d="M45.71,221.79a1,1,0,0,0-.38-.8l-7.87-6.65A1.05,1.05,0,0,0,36.1,216L43,221.79l-6.7,5.66a1.06,1.06,0,0,0,.68,1.86,1,1,0,0,0,.68-.25l7.65-6.46A1.06,1.06,0,0,0,45.71,221.79Z" style="fill:#fff"/></svg>