<svg xmlns="http://www.w3.org/2000/svg" width="394" height="309" viewBox="0 0 394 309">
  <g id="main-02" transform="translate(-85.15 -167.6)">
    <g id="Group_9712" data-name="Group 9712">
      <path id="Polygon_17-9" d="M256.9,167.6a9.874,9.874,0,0,1,8.6,5l22.2,38a10.12,10.12,0,0,1,0,10.1l-22.2,38a10,10,0,0,1-8.6,5H212.4a9.874,9.874,0,0,1-8.6-5l-22.2-38a10.12,10.12,0,0,1,0-10.1l22.2-38a10,10,0,0,1,8.6-5Z" fill="#fff"/>
    </g>
    <g id="Group_9713" data-name="Group 9713">
      <path id="Polygon_17-10" d="M446.9,277.6a10.035,10.035,0,0,1,8.7,5l22.2,38.5a9.934,9.934,0,0,1,0,10l-22.2,38.5a10.035,10.035,0,0,1-8.7,5H402.4a10.035,10.035,0,0,1-8.7-5l-22.2-38.5a9.934,9.934,0,0,1,0-10l22.2-38.5a10.035,10.035,0,0,1,8.7-5Z" fill="#fff"/>
    </g>
    <g id="Group_9714" data-name="Group 9714">
      <path id="Polygon_17-11_1_" d="M161.9,330.6a10.035,10.035,0,0,1,8.7,5l22.2,38.5a9.934,9.934,0,0,1,0,10l-22.2,38.5a10.035,10.035,0,0,1-8.7,5H117.4a10.035,10.035,0,0,1-8.7-5L86.5,384.1a9.934,9.934,0,0,1,0-10l22.2-38.5a10.035,10.035,0,0,1,8.7-5Z" fill="#fff"/>
    </g>
    <g id="Group_9715" data-name="Group 9715">
      <path id="Polygon_17-12_1_" d="M351.9,219.6a10.035,10.035,0,0,1,8.7,5l22.2,38.5a9.934,9.934,0,0,1,0,10l-22.2,38.5a10.035,10.035,0,0,1-8.7,5H307.4a10.035,10.035,0,0,1-8.7-5l-22.2-38.5a9.934,9.934,0,0,1,0-10l22.2-38.5a10.035,10.035,0,0,1,8.7-5Z" fill="#fff"/>
    </g>
    <g id="Group_9716" data-name="Group 9716">
      <path id="Polygon_17-13_1_" d="M256.9,273.6a10.117,10.117,0,0,1,8.6,4.9L287.6,316a10.308,10.308,0,0,1,0,10.2l-22.1,37.5a10.117,10.117,0,0,1-8.6,4.9H212.3a10.117,10.117,0,0,1-8.6-4.9l-22.1-37.5a10.308,10.308,0,0,1,0-10.2l22.1-37.5a10.117,10.117,0,0,1,8.6-4.9Z" fill="#fff"/>
    </g>
    <g id="Group_9717" data-name="Group 9717">
      <path id="Polygon_17-14_1_" d="M161.9,222.6a9.874,9.874,0,0,1,8.6,5l22.2,38a10.12,10.12,0,0,1,0,10.1l-22.2,38a10,10,0,0,1-8.6,5H117.4a9.874,9.874,0,0,1-8.6-5l-22.2-38a10.12,10.12,0,0,1,0-10.1l22.2-38a10,10,0,0,1,8.6-5Z" fill="#fff"/>
    </g>
    <g id="Group_9718" data-name="Group 9718">
      <path id="Polygon_17-15_2_" d="M256.9,381.6a10.117,10.117,0,0,1,8.6,4.9L287.6,424a10.308,10.308,0,0,1,0,10.2l-22.1,37.5a10.117,10.117,0,0,1-8.6,4.9H212.3a10.117,10.117,0,0,1-8.6-4.9l-22.1-37.5a10.308,10.308,0,0,1,0-10.2l22.1-37.5a10.117,10.117,0,0,1,8.6-4.9Z" fill="#fff"/>
    </g>
    <g id="Group_9719" data-name="Group 9719">
      <path id="Polygon_17-16_2_" d="M351.9,327.6a10.035,10.035,0,0,1,8.7,5l22.2,38.5a9.934,9.934,0,0,1,0,10l-22.2,38.5a10.035,10.035,0,0,1-8.7,5H307.4a10.035,10.035,0,0,1-8.7-5l-22.2-38.5a9.934,9.934,0,0,1,0-10l22.2-38.5a10.035,10.035,0,0,1,8.7-5Z" fill="#fff"/>
    </g>
    <g id="icons-39" transform="translate(135 32)">
      <path id="Ellipse_245" d="M17.5-1A18.495,18.495,0,0,1,30.581,30.581,18.5,18.5,0,1,1,10.3.454,18.385,18.385,0,0,1,17.5-1Zm0,35A16.5,16.5,0,0,0,29.167,5.833,16.5,16.5,0,1,0,5.833,29.167,16.392,16.392,0,0,0,17.5,34Z" transform="translate(82.1 166.2)" fill="#294364"/>
      <path id="Ellipse_246" d="M9-1c2.8,0,5.373,2.013,7.253,5.668A28.676,28.676,0,0,1,19,17.5a28.676,28.676,0,0,1-2.747,12.832C14.373,33.987,11.8,36,9,36s-5.373-2.013-7.253-5.668A28.676,28.676,0,0,1-1,17.5,28.676,28.676,0,0,1,1.747,4.668C3.627,1.013,6.2-1,9-1ZM9,34a4.5,4.5,0,0,0,2.868-1.148,10.765,10.765,0,0,0,2.607-3.435A26.661,26.661,0,0,0,17,17.5,26.661,26.661,0,0,0,14.475,5.583a10.765,10.765,0,0,0-2.607-3.435A4.5,4.5,0,0,0,9,1,4.5,4.5,0,0,0,6.132,2.148,10.765,10.765,0,0,0,3.525,5.583,26.661,26.661,0,0,0,1,17.5,26.661,26.661,0,0,0,3.525,29.417a10.765,10.765,0,0,0,2.607,3.435A4.5,4.5,0,0,0,9,34Z" transform="translate(90.6 166.2)" fill="#294364"/>
      <path id="Ellipse_247" d="M12.5-1A23.613,23.613,0,0,1,21.742.7C24.488,1.9,26,3.61,26,5.5s-1.512,3.6-4.258,4.8A23.613,23.613,0,0,1,12.5,12a23.613,23.613,0,0,1-9.242-1.7C.512,9.1-1,7.39-1,5.5S.512,1.9,3.258.7A23.613,23.613,0,0,1,12.5-1Zm0,11a21.6,21.6,0,0,0,8.436-1.526C22.855,7.63,24,6.518,24,5.5s-1.145-2.13-3.064-2.974A21.6,21.6,0,0,0,12.5,1,21.6,21.6,0,0,0,4.064,2.526C2.145,3.37,1,4.482,1,5.5S2.145,7.63,4.064,8.474A21.6,21.6,0,0,0,12.5,10Z" transform="translate(87.1 166.3)" fill="#294364"/>
      <path id="Path_26251" d="M87.807,196.707l-1.414-1.414.2-.2.005-.005a18.528,18.528,0,0,1,26.214.21l-1.424,1.4A16.534,16.534,0,0,0,88,196.51Z" fill="#294364"/>
      <path id="Line_183" d="M33.2,1H0V-1H33.2Z" transform="translate(83 184.1)" fill="#294364"/>
      <path id="Line_184" d="M0,11.5a1,1,0,0,1-.7-.29A1,1,0,0,1-.71,9.8l.7-.71a1,1,0,0,1,1.421,1.407l-.7.71A1,1,0,0,1,0,11.5ZM3.519,7.948a1,1,0,0,1-.71-1.7l.7-.71A1,1,0,0,1,4.933,6.941l-.7.71A1,1,0,0,1,3.519,7.948ZM7.037,4.4a1,1,0,0,1-.71-1.7l.7-.71A1,1,0,0,1,8.451,3.388l-.7.71A1,1,0,0,1,7.037,4.4Z" transform="translate(113.4 160.4)" fill="#294364"/>
      <path id="Line_185" d="M10.4,11.5a1,1,0,0,1-.711-.3l-.7-.71a1,1,0,0,1,1.421-1.407l.7.71a1,1,0,0,1-.71,1.7ZM6.881,7.948a1,1,0,0,1-.711-.3l-.7-.71A1,1,0,0,1,6.888,5.533l.7.71a1,1,0,0,1-.71,1.7ZM3.363,4.4a1,1,0,0,1-.711-.3l-.7-.71A1,1,0,0,1,3.37,1.981l.7.71a1,1,0,0,1-.71,1.7Z" transform="translate(75.5 160.4)" fill="#294364"/>
      <path id="Line_186" d="M2.622,8.778a1,1,0,0,1-.707-1.707l.707-.707A1,1,0,0,1,4.036,7.778l-.707.707A1,1,0,0,1,2.622,8.778ZM6.157,5.243A1,1,0,0,1,5.45,3.536l.707-.707A1,1,0,0,1,7.572,4.243l-.707.707A1,1,0,0,1,6.157,5.243ZM9.693,1.707A1,1,0,0,1,8.986,0l.707-.707a1,1,0,0,1,1.414,0,1,1,0,0,1,0,1.414l-.707.707A1,1,0,0,1,9.693,1.707Z" transform="translate(75.5 196.5)" fill="#294364"/>
      <path id="Line_187" d="M7.778,8.778a1,1,0,0,1-.707-.293l-.707-.707A1,1,0,0,1,7.778,6.364l.707.707a1,1,0,0,1-.707,1.707ZM4.243,5.243a1,1,0,0,1-.707-.293l-.707-.707A1,1,0,0,1,4.243,2.828l.707.707a1,1,0,0,1-.707,1.707ZM.707,1.707A1,1,0,0,1,0,1.414L-.707.707a1,1,0,0,1,0-1.414,1,1,0,0,1,1.414,0L1.414,0A1,1,0,0,1,.707,1.707Z" transform="translate(113.4 196.5)" fill="#294364"/>
      <circle id="Ellipse_248" cx="2.8" cy="2.8" r="2.8" transform="translate(71.7 156.7)" fill="#ff8015"/>
      <circle id="Ellipse_249" cx="2.8" cy="2.8" r="2.8" transform="translate(121 156.7)" fill="#ff8015"/>
      <circle id="Ellipse_250" cx="2.8" cy="2.8" r="2.8" transform="translate(71.7 205)" fill="#ff8015"/>
      <circle id="Ellipse_251" cx="2.8" cy="2.8" r="2.8" transform="translate(121 205)" fill="#ff8015"/>
    </g>
    <g id="icons-01" transform="translate(236 86.59)">
      <path id="Ellipse_140" d="M11.9-1A12.9,12.9,0,0,1,24.8,11.9,12.9,12.9,0,0,1,11.9,24.8,12.9,12.9,0,0,1-1,11.9,12.9,12.9,0,0,1,11.9-1Zm0,23.8A10.9,10.9,0,0,0,19.607,4.193,10.9,10.9,0,1,0,4.193,19.607,10.829,10.829,0,0,0,11.9,22.8Z" transform="translate(87.5 173.3)" fill="#294364"/>
      <path id="Line_105" d="M3.793,5.207l-4.5-4.5L.707-.707l4.5,4.5Z" transform="translate(108.1 193.2)" fill="#294364"/>
      <path id="Rectangle_7260" d="M114.5,195.85a3.525,3.525,0,0,1,2.507,1.043l6.5,6.5a3.546,3.546,0,1,1-5.014,5.014l-6.5-6.5a3.55,3.55,0,0,1,2.507-6.057Zm6.5,11.6a1.55,1.55,0,0,0,1.093-2.643l-6.5-6.5a1.546,1.546,0,0,0-2.186,2.186l6.5,6.5A1.538,1.538,0,0,0,121,207.45Z" fill="#294364"/>
      <path id="Path_26102" d="M99.4,179.9a8.13,8.13,0,0,0-7.8,5.2l-.1.2.1.2a8.424,8.424,0,0,0,11,4.6,8.311,8.311,0,0,0,4.6-4.6l.1-.2-.1-.2A8.13,8.13,0,0,0,99.4,179.9Zm0,8.6a3.1,3.1,0,1,1,3.1-3.1h0A3.116,3.116,0,0,1,99.4,188.5Z" fill="#ff8015"/>
      <path id="Path_26103" d="M99.4,183.8a1.6,1.6,0,1,0,1.6,1.6A1.58,1.58,0,0,0,99.4,183.8Z" fill="#ff8015"/>
      <path id="Path_26104" d="M107.3,208.4H74a1,1,0,0,1-1-1V161.9a1,1,0,0,1,1-1h33.2a1,1,0,0,1,1,1v13.9h-2V162.9H75v43.5h31.3V193.8h2v13.6A1,1,0,0,1,107.3,208.4Z" fill="#294364"/>
      <path id="Path_26105" d="M74,203.1H69.6a1,1,0,0,1-1-1V156.6a1,1,0,0,1,1-1h33.2a1,1,0,0,1,1,1v5.2h-2v-4.2H70.6v43.5H74Z" fill="#294364"/>
    </g>
    <g id="icons-44_1_" transform="translate(325.37 142.24)">
      <path id="Path_26274_1_" d="M120.8,188.6l-7.2,3.6-7.2-3.6,7.2-4.1Z" fill="#ff8015"/>
      <path id="Path_26275_1_" d="M75.2,159.5h35.4a3.9,3.9,0,0,1,3.9,3.9V181a1,1,0,0,1-.5.868l-12.186,6.976,12.039,6.063a1,1,0,0,1,.55.893v15.7a1,1,0,0,1-1,1H75.2a3.9,3.9,0,0,1-3.9-3.9V163.4A3.9,3.9,0,0,1,75.2,159.5Zm37.3,20.92V163.4a1.9,1.9,0,0,0-1.9-1.9H75.2a1.9,1.9,0,0,0-1.9,1.9v45.2a1.9,1.9,0,0,0,1.9,1.9h37.2V196.416l-13.15-6.623a1,1,0,0,1-.047-1.761Z" fill="#294364"/>
      <path id="Path_26276_1_" d="M84.1,156.4h18.7a2.006,2.006,0,0,1,2,2h0v5.9H82.1v-5.9A2.006,2.006,0,0,1,84.1,156.4Z" fill="#ff8015"/>
      <path id="Line_197_1_" d="M29.4,1H0A1,1,0,0,1-1,0,1,1,0,0,1,0-1H29.4a1,1,0,0,1,1,1A1,1,0,0,1,29.4,1Z" transform="translate(78.2 171.1)" fill="#294364"/>
      <path id="Line_198_1_" d="M29.4,1H0A1,1,0,0,1-1,0,1,1,0,0,1,0-1H29.4a1,1,0,0,1,1,1A1,1,0,0,1,29.4,1Z" transform="translate(78.2 178)" fill="#294364"/>
      <path id="Line_199_1_" d="M19.6,1H0A1,1,0,0,1-1,0,1,1,0,0,1,0-1H19.6a1,1,0,0,1,1,1A1,1,0,0,1,19.6,1Z" transform="translate(78.2 184.9)" fill="#294364"/>
      <path id="Line_200_1_" d="M13.7,1H0A1,1,0,0,1-1,0,1,1,0,0,1,0-1H13.7a1,1,0,0,1,1,1A1,1,0,0,1,13.7,1Z" transform="translate(78.2 191.8)" fill="#294364"/>
      <path id="Path_26277_1_" d="M113.5,212.4a1,1,0,0,1-1-1V195.7a1,1,0,0,1,.553-.894l13.8-6.9a1,1,0,0,1,1.447.894v15.7a1,1,0,0,1-.553.894l-13.8,6.9A1,1,0,0,1,113.5,212.4Zm1-16.082v13.464l11.8-5.9V190.418Z" fill="#294364"/>
      <path id="Path_26278_1_" d="M113.5,196.7a1,1,0,0,1-.447-.106l-13.8-6.9a1,1,0,0,1-.05-1.762l13.8-7.9a1,1,0,0,1,.994,0l13.8,7.9a1,1,0,0,1-.05,1.762l-13.8,6.9A1,1,0,0,1,113.5,196.7Zm-11.683-7.96,11.683,5.842,11.683-5.842L113.5,182.052Z" fill="#294364"/>
      <path id="Path_26279_1_" d="M113.5,212.4a1,1,0,0,1-.45-.107l-13.7-6.9a1,1,0,0,1-.55-.893V188.8a1,1,0,0,1,1.45-.893l13.7,6.9a1,1,0,0,1,.55.893v15.7a1,1,0,0,1-1,1Zm-12.7-8.516,11.7,5.893V196.316l-11.7-5.893Z" fill="#294364"/>
    </g>
    <g id="icons-43_2_" transform="translate(232 193)">
      <path id="Ellipse_261_2_" d="M12-1A13,13,0,0,1,25,12,13,13,0,0,1,12,25,13,13,0,0,1-1,12,13,13,0,0,1,12-1Zm0,24A11,11,0,0,0,19.778,4.222,11,11,0,0,0,4.222,19.778,10.928,10.928,0,0,0,12,23Z" transform="translate(85.7 170.6)" fill="#294364"/>
      <path id="Line_189_2_" d="M0,13.6a1,1,0,0,1-.731-.318,1,1,0,0,1,.049-1.413l.731-.682a1,1,0,1,1,1.365,1.462l-.731.682A1,1,0,0,1,0,13.6Zm3.655-3.412a1,1,0,0,1-.683-1.731L3.7,7.775A1,1,0,1,1,5.069,9.237l-.731.682A1,1,0,0,1,3.655,10.188ZM7.311,6.777a1,1,0,0,1-.683-1.731l.731-.682A1,1,0,0,1,8.724,5.826l-.731.682A1,1,0,0,1,7.311,6.777Zm3.655-3.412a1,1,0,0,1-.683-1.731l.731-.682a1,1,0,1,1,1.365,1.462l-.731.682A1,1,0,0,1,10.966,3.365Z" transform="translate(105.4 160.4)" fill="#294364"/>
      <path id="Line_190_2_" d="M13.5,13.6a1,1,0,0,1-.682-.269l-.731-.682a1,1,0,1,1,1.365-1.462l.731.682A1,1,0,0,1,13.5,13.6ZM9.845,10.188a1,1,0,0,1-.682-.269l-.731-.682A1,1,0,1,1,9.8,7.775l.731.682a1,1,0,0,1-.683,1.731ZM6.189,6.777a1,1,0,0,1-.682-.269l-.731-.682A1,1,0,0,1,6.141,4.363l.731.682a1,1,0,0,1-.683,1.731ZM2.534,3.365A1,1,0,0,1,1.852,3.1l-.731-.682A1,1,0,0,1,2.485.952l.731.682a1,1,0,0,1-.683,1.731Z" transform="translate(76.4 160.4)" fill="#294364"/>
      <path id="Line_191_2_" d="M1.8,11.917a1,1,0,0,1-.683-1.731L1.852,9.5a1,1,0,1,1,1.365,1.462l-.731.682A1,1,0,0,1,1.8,11.917ZM5.459,8.506a1,1,0,0,1-.683-1.731l.731-.682A1,1,0,0,1,6.872,7.554l-.731.682A1,1,0,0,1,5.459,8.506ZM9.114,5.094a1,1,0,0,1-.683-1.731l.731-.682a1,1,0,1,1,1.365,1.462L9.8,4.825A1,1,0,0,1,9.114,5.094Zm3.655-3.412a1,1,0,0,1-.683-1.731l.731-.682a1,1,0,0,1,1.413.049A1,1,0,0,1,14.182.731l-.731.682A1,1,0,0,1,12.769,1.682Z" transform="translate(76.4 192.3)" fill="#294364"/>
      <path id="Line_192_2_" d="M11.7,11.917a1,1,0,0,1-.682-.269l-.731-.682A1,1,0,1,1,11.648,9.5l.731.682a1,1,0,0,1-.683,1.731ZM8.041,8.506a1,1,0,0,1-.682-.269l-.731-.682A1,1,0,0,1,7.993,6.092l.731.682a1,1,0,0,1-.683,1.731ZM4.386,5.094A1,1,0,0,1,3.7,4.825l-.731-.682A1,1,0,1,1,4.338,2.681l.731.682a1,1,0,0,1-.683,1.731ZM.731,1.682a1,1,0,0,1-.682-.269L-.682.731A1,1,0,0,1-.731-.682,1,1,0,0,1,.682-.731l.731.682A1,1,0,0,1,.731,1.682Z" transform="translate(105.4 192.3)" fill="#294364"/>
      <path id="Line_193_2_" d="M0,15.5a1,1,0,0,1-1-1v-1a1,1,0,0,1,1-1,1,1,0,0,1,1,1v1A1,1,0,0,1,0,15.5Zm0-5a1,1,0,0,1-1-1v-1a1,1,0,0,1,1-1,1,1,0,0,1,1,1v1A1,1,0,0,1,0,10.5Zm0-5a1,1,0,0,1-1-1v-1a1,1,0,0,1,1-1,1,1,0,0,1,1,1v1A1,1,0,0,1,0,5.5Z" transform="translate(97.7 156.5)" fill="#294364"/>
      <path id="Line_194_2_" d="M0,12a1,1,0,0,1-1-1V10A1,1,0,0,1,0,9a1,1,0,0,1,1,1v1A1,1,0,0,1,0,12ZM0,7A1,1,0,0,1-1,6V5A1,1,0,0,1,0,4,1,1,0,0,1,1,5V6A1,1,0,0,1,0,7ZM0,2A1,1,0,0,1-1,1V0A1,1,0,0,1,0-1,1,1,0,0,1,1,0V1A1,1,0,0,1,0,2Z" transform="translate(97.7 194.2)" fill="#294364"/>
      <path id="Line_195_2_" d="M14.5,1h-1a1,1,0,0,1-1-1,1,1,0,0,1,1-1h1a1,1,0,0,1,1,1A1,1,0,0,1,14.5,1Zm-5,0h-1a1,1,0,0,1-1-1,1,1,0,0,1,1-1h1a1,1,0,0,1,1,1A1,1,0,0,1,9.5,1Zm-5,0h-1a1,1,0,0,1-1-1,1,1,0,0,1,1-1h1a1,1,0,0,1,1,1A1,1,0,0,1,4.5,1Z" transform="translate(71.6 182.6)" fill="#294364"/>
      <path id="Line_196_2_" d="M11,1H10A1,1,0,0,1,9,0a1,1,0,0,1,1-1h1a1,1,0,0,1,1,1A1,1,0,0,1,11,1ZM6,1H5A1,1,0,0,1,4,0,1,1,0,0,1,5-1H6A1,1,0,0,1,7,0,1,1,0,0,1,6,1ZM1,1H0A1,1,0,0,1-1,0,1,1,0,0,1,0-1H1A1,1,0,0,1,2,0,1,1,0,0,1,1,1Z" transform="translate(109.3 182.6)" fill="#294364"/>
      <circle id="Ellipse_262_2_" cx="2.9" cy="2.9" r="2.9" transform="translate(120.9 179.7)" fill="#ff8015"/>
      <ellipse id="Ellipse_263_2_" cx="2.9" cy="2.4" rx="2.9" ry="2.4" transform="translate(114.1 159.5)" fill="#ff8015"/>
      <circle id="Ellipse_264_2_" cx="2.4" cy="2.4" r="2.4" transform="translate(76.4 159.5)" fill="#ff8015"/>
      <circle id="Ellipse_265_2_" cx="2.9" cy="2.9" r="2.9" transform="translate(68.7 179.7)" fill="#ff8015"/>
      <circle id="Ellipse_266_2_" cx="2.9" cy="2.9" r="2.9" transform="translate(94.8 153.6)" fill="#ff8015"/>
      <ellipse id="Ellipse_267_2_" cx="2.9" cy="2.4" rx="2.9" ry="2.4" transform="translate(114.1 201)" fill="#ff8015"/>
      <circle id="Ellipse_268_2_" cx="2.4" cy="2.4" r="2.4" transform="translate(76.4 201)" fill="#ff8015"/>
      <circle id="Ellipse_269_2_" cx="2.9" cy="2.9" r="2.9" transform="translate(94.8 205.8)" fill="#ff8015"/>
    </g>
    <g id="icons-22" transform="translate(135.53 245.223)">
      <path id="Ellipse_193" d="M17.6-1A18.595,18.595,0,0,1,30.752,30.752,18.6,18.6,0,1,1,10.36.462,18.485,18.485,0,0,1,17.6-1Zm0,35.2A16.6,16.6,0,0,0,29.338,5.862,16.6,16.6,0,1,0,5.862,29.338,16.491,16.491,0,0,0,17.6,34.2Z" transform="translate(71.1 157.6)" fill="#294364"/>
      <path id="Path_26193" d="M97.1,166.4a1,1,0,0,1-.689-.275A9.609,9.609,0,0,0,89.8,163.4a1,1,0,0,1,0-2,11.6,11.6,0,0,1,7.989,3.275A1,1,0,0,1,97.1,166.4Z" fill="#294364"/>
      <path id="Line_159" d="M5.893,7.307l-6.6-6.6L.707-.707l6.6,6.6Z" transform="translate(101.7 187.1)" fill="#294364"/>
      <path id="Rectangle_7277" d="M111.188,191.475a4.523,4.523,0,0,1,3.331,1.429l9.589,9.589a4.829,4.829,0,0,1,1.417,3.476,4.528,4.528,0,0,1-1.429,3.251,4.774,4.774,0,0,1-3.383,1.406,4.523,4.523,0,0,1-3.331-1.429l-9.589-9.589a4.829,4.829,0,0,1-1.417-3.476,4.528,4.528,0,0,1,1.429-3.251A4.774,4.774,0,0,1,111.188,191.475Zm9.525,17.15a2.789,2.789,0,0,0,1.98-.832l.025-.024a2.545,2.545,0,0,0,.807-1.835,2.782,2.782,0,0,0-.832-2.027l-9.6-9.6-.024-.025a2.543,2.543,0,0,0-1.881-.807,2.789,2.789,0,0,0-1.98.832l-.025.024a2.545,2.545,0,0,0-.807,1.835,2.782,2.782,0,0,0,.832,2.027l9.6,9.6.024.025A2.543,2.543,0,0,0,120.712,208.625Z" fill="#294364"/>
      <path id="Path_26194" d="M88.7,167.4a12,12,0,0,0-11.5,7.8l-.1.4.1.4a12.386,12.386,0,0,0,11.5,7.8,12,12,0,0,0,11.5-7.8l.1-.4-.1-.4A12,12,0,0,0,88.7,167.4Zm0,12.8a4.6,4.6,0,1,1,4.6-4.6,4.525,4.525,0,0,1-4.6,4.6Z" fill="#ff8015"/>
      <path id="Path_26195" d="M88.7,173.2a2.3,2.3,0,1,0,2.3,2.3A2.326,2.326,0,0,0,88.7,173.2Z" fill="#ff8015"/>
    </g>
    <g id="icons-03" transform="translate(40 86.5)">
      <path id="Path_26107" d="M122,212.6H77.7a1,1,0,0,1-1-1v-52a1,1,0,0,1,1-1h9.9v2H78.7v50H121v-50h-8.8v-2H122a1,1,0,0,1,1,1v52A1,1,0,0,1,122,212.6Z" fill="#294364"/>
      <path id="Path_26108" d="M89.5,155.6h20.7a2.841,2.841,0,0,1,2.1.948,2.684,2.684,0,0,1,.7,2V164.6a1,1,0,0,1-1,1H87.7a1,1,0,0,1-1-1v-6.056a2.6,2.6,0,0,1,.59-1.869,3.068,3.068,0,0,1,2.119-1.071Q89.455,155.6,89.5,155.6Zm21.5,8v-5.1q0-.05,0-.1a.684.684,0,0,0-.193-.51.85.85,0,0,0-.612-.29H89.551a1.09,1.09,0,0,0-.718.348.594.594,0,0,0-.138.452q0,.05,0,.1v5.1Z" fill="#294364"/>
      <path id="Line_106" d="M14,1H0A1,1,0,0,1-1,0,1,1,0,0,1,0-1H14a1,1,0,0,1,1,1A1,1,0,0,1,14,1Z" transform="translate(83.7 171.1)" fill="#294364"/>
      <path id="Line_107" d="M8.7,1H0A1,1,0,0,1-1,0,1,1,0,0,1,0-1H8.7a1,1,0,0,1,1,1A1,1,0,0,1,8.7,1Z" transform="translate(83.7 176.9)" fill="#294364"/>
      <circle id="Ellipse_142" cx="5.5" cy="5.5" r="5.5" transform="translate(102.5 169.1)" fill="#ff8015"/>
      <path id="Path_26109" d="M88,207.6a1,1,0,0,1-.287-1.958,36.743,36.743,0,0,0,9.746-5.01,25.288,25.288,0,0,0,6.589-6.829A18.794,18.794,0,0,0,107,183.6a1,1,0,0,1,2,0,20.766,20.766,0,0,1-3.281,11.3,27.323,27.323,0,0,1-7.132,7.383,38.068,38.068,0,0,1-10.3,5.273A1,1,0,0,1,88,207.6Z" fill="#294364"/>
      <path id="Path_26110" d="M113.5,190.5a1,1,0,0,1-.707-.293l-5.293-5.293-5.293,5.293a1,1,0,0,1-1.414-1.414l6-6a1,1,0,0,1,1.414,0l6,6a1,1,0,0,1-.707,1.707Z" fill="#294364"/>
      <path id="Line_108" d="M5.2,6.2a1,1,0,0,1-.707-.293l-5.2-5.2a1,1,0,0,1,0-1.414,1,1,0,0,1,1.414,0l5.2,5.2A1,1,0,0,1,5.2,6.2Z" transform="translate(89 190.1)" fill="#294364"/>
      <path id="Line_109" d="M0,6.2a1,1,0,0,1-.707-.293,1,1,0,0,1,0-1.414l5.2-5.2a1,1,0,0,1,1.414,0,1,1,0,0,1,0,1.414l-5.2,5.2A1,1,0,0,1,0,6.2Z" transform="translate(89 190.1)" fill="#294364"/>
      <path id="Line_110" d="M5.2,6.2a1,1,0,0,1-.707-.293l-5.2-5.2a1,1,0,0,1,0-1.414,1,1,0,0,1,1.414,0l5.2,5.2A1,1,0,0,1,5.2,6.2Z" transform="translate(110.1 199.4)" fill="#294364"/>
      <path id="Line_111" d="M0,6.2a1,1,0,0,1-.707-.293,1,1,0,0,1,0-1.414l5.2-5.2a1,1,0,0,1,1.414,0,1,1,0,0,1,0,1.414l-5.2,5.2A1,1,0,0,1,0,6.2Z" transform="translate(110.1 199.4)" fill="#294364"/>
    </g>
    <g id="icons-36" transform="translate(41.386 196.315)">
      <path id="Path_26243" d="M101.4,162.1l17.4,17.4,6.5-6.5-17.4-17.4Zm19.5,12.3a2.051,2.051,0,1,1,0-2.9,1.974,1.974,0,0,1,.6,1.4,2.035,2.035,0,0,1-.6,1.5Z" fill="#ff8015"/>
      <path id="Line_178" d="M15.193,16.607-.707.707.707-.707l15.9,15.9Z" transform="translate(97.8 173)" fill="#294364"/>
      <path id="Line_179" d="M2.883,4.4-.717.7.717-.7,4.317,3Z" transform="translate(92.7 202.6)" fill="#294364"/>
      <path id="Rectangle_7283" d="M87.563,207.4a3.753,3.753,0,0,1-2.784-1.207l-.072-.072a3.758,3.758,0,0,1-1.206-2.7,4.046,4.046,0,0,1,1.192-2.929l6.6-6.6a4,4,0,0,1,2.845-1.193,3.753,3.753,0,0,1,2.784,1.207l.086.086a4.046,4.046,0,0,1,1.192,2.929,3.758,3.758,0,0,1-1.206,2.7l-6.586,6.586A4,4,0,0,1,87.563,207.4Zm6.575-12.7a2.018,2.018,0,0,0-1.43.607l-6.6,6.6a2.01,2.01,0,0,0-.607,1.472,1.776,1.776,0,0,0,.575,1.284l.031.03.1.1.03.031a1.775,1.775,0,0,0,1.325.576,2.018,2.018,0,0,0,1.43-.607l6.6-6.6.031-.03a1.776,1.776,0,0,0,.575-1.284,2.01,2.01,0,0,0-.607-1.472l-.1-.1-.03-.031A1.775,1.775,0,0,0,94.138,194.7Z" fill="#294364"/>
      <path id="Rectangle_7284" d="M83.262,203.1a3.753,3.753,0,0,1-2.784-1.207l-.072-.072a3.758,3.758,0,0,1-1.206-2.7,4.046,4.046,0,0,1,1.192-2.929l6.6-6.6a4,4,0,0,1,2.845-1.193,3.753,3.753,0,0,1,2.784,1.207l.086.086a4.046,4.046,0,0,1,1.192,2.929,3.758,3.758,0,0,1-1.206,2.7l-6.586,6.586A4,4,0,0,1,83.262,203.1Zm6.575-12.7a2.018,2.018,0,0,0-1.43.607l-6.6,6.6a2.01,2.01,0,0,0-.607,1.472,1.776,1.776,0,0,0,.575,1.284l.031.03.1.1.03.031a1.775,1.775,0,0,0,1.325.576,2.018,2.018,0,0,0,1.43-.607l6.6-6.6.031-.03a1.776,1.776,0,0,0,.575-1.284,2.01,2.01,0,0,0-.607-1.472l-.1-.1-.03-.031A1.775,1.775,0,0,0,89.837,190.4Z" fill="#294364"/>
      <path id="Rectangle_7285" d="M78.862,198.7a3.753,3.753,0,0,1-2.784-1.207l-.086-.086a4.079,4.079,0,0,1-.03-5.583l.03-.031,6.6-6.6A4,4,0,0,1,85.438,184a3.753,3.753,0,0,1,2.784,1.207l.086.086a4.046,4.046,0,0,1,1.192,2.929,3.758,3.758,0,0,1-1.206,2.7l-6.586,6.586A4,4,0,0,1,78.862,198.7Zm-1.439-5.51a2.085,2.085,0,0,0-.017,2.8l.1.1.03.031a1.775,1.775,0,0,0,1.325.576,2.018,2.018,0,0,0,1.43-.607l6.6-6.6.031-.03a1.776,1.776,0,0,0,.575-1.284,2.01,2.01,0,0,0-.607-1.472l-.1-.1-.03-.031A1.775,1.775,0,0,0,85.438,186a2.018,2.018,0,0,0-1.43.607Z" fill="#294364"/>
      <path id="Rectangle_7286" d="M74.563,194.4a3.753,3.753,0,0,1-2.784-1.207l-.072-.072a3.758,3.758,0,0,1-1.206-2.7,4.046,4.046,0,0,1,1.192-2.929l6.6-6.6a4,4,0,0,1,2.845-1.193,3.753,3.753,0,0,1,2.784,1.207l.086.086a4.046,4.046,0,0,1,1.192,2.929,3.758,3.758,0,0,1-1.206,2.7l-6.586,6.586A4,4,0,0,1,74.563,194.4Zm6.575-12.7a2.018,2.018,0,0,0-1.43.607l-6.6,6.6a2.01,2.01,0,0,0-.607,1.472,1.776,1.776,0,0,0,.575,1.284l.031.03.1.1.03.031a1.775,1.775,0,0,0,1.325.576,2.018,2.018,0,0,0,1.43-.607l6.6-6.6.031-.03a1.776,1.776,0,0,0,.575-1.284,2.01,2.01,0,0,0-.607-1.472l-.1-.1-.03-.031A1.775,1.775,0,0,0,81.138,181.7Z" fill="#294364"/>
      <path id="Path_26244" d="M92.4,161.3h.051l9.7.5a1,1,0,0,1,.656.292l15.9,15.9a1,1,0,0,1,0,1.414l-7.2,7.2a1,1,0,0,1-1.414,0L95.022,171.536,94.8,177.52a4.341,4.341,0,0,1-1.045,2.837,3.868,3.868,0,0,1-2.692,1.342c-.084,0-.166.007-.246.007a4.12,4.12,0,0,1-4.114-3.743q0-.031,0-.062V167A5.706,5.706,0,0,1,92.4,161.3Zm9.265,2.479-9.289-.479A3.7,3.7,0,0,0,88.7,167v10.865a2.124,2.124,0,0,0,2.116,1.84c.042,0,.084,0,.125,0a2.09,2.09,0,0,0,1.859-2.2q0-.019,0-.037l.3-8.1a1,1,0,0,1,1.6-.763l.8.6a1,1,0,0,1,.107.093L110.8,184.486l5.786-5.786Z" fill="#294364"/>
      <path id="Path_26245" d="M100.65,210.3a4.019,4.019,0,0,1-2.857-1.193l-5.8-5.8a1,1,0,0,1,1.414-1.414l5.8,5.8a2.041,2.041,0,0,0,2.886-2.886l-3.6-3.6a1,1,0,0,1,1.414-1.414l3.6,3.6a4.05,4.05,0,0,1-2.857,6.907Z" fill="#294364"/>
      <path id="Path_26246" d="M105.15,206a4.019,4.019,0,0,1-2.852-1.188l-3.7-3.6A1,1,0,1,1,100,199.783l3.7,3.6.01.01a2.041,2.041,0,1,0,2.886-2.886l-3.7-3.7a1,1,0,0,1,1.414-1.414l3.7,3.7A4.05,4.05,0,0,1,105.15,206Z" fill="#294364"/>
      <path id="Path_26247" d="M109.45,201.7a4.019,4.019,0,0,1-2.857-1.193l-3.7-3.7a1,1,0,0,1,1.414-1.414l3.7,3.7a2.041,2.041,0,1,0,2.886-2.886l-3.7-3.7a1,1,0,0,1,1.414-1.414l3.7,3.7a4.05,4.05,0,0,1-2.857,6.907Z" fill="#294364"/>
      <path id="Path_26248" d="M113.75,197.3a4.019,4.019,0,0,1-2.857-1.193l-3.7-3.7a1,1,0,0,1,1.414-1.414l3.7,3.7a2.041,2.041,0,1,0,2.886-2.886l-5.8-5.8a1,1,0,0,1,1.414-1.414l5.8,5.8a4.05,4.05,0,0,1-2.857,6.907Z" fill="#294364"/>
    </g>
    <g id="icons-37" transform="translate(134 137)">
      <path id="Path_26249" d="M106.1,185.1H94.2c-5.4,0-9.8,4.1-9.8,9.1v6.9a.684.684,0,0,0,.7.7h4.6l1.1-9.8h18.8v9.9H115a.684.684,0,0,0,.7-.7v-6.9C115.9,189.2,111.5,185.1,106.1,185.1Z" fill="#ff8015"/>
      <circle id="Ellipse_242" cx="7.3" cy="7.3" r="7.3" transform="translate(92.9 168.6)" fill="#ff8015"/>
      <path id="Rectangle_7287" d="M0-1H18.7a1,1,0,0,1,1,1V13.8a1,1,0,0,1-1,1H0a1,1,0,0,1-1-1V0A1,1,0,0,1,0-1ZM17.7,1H1V12.8H17.7Z" transform="translate(90.8 192)" fill="#294364"/>
      <path id="Line_180" d="M27.5,1H0V-1H27.5Z" transform="translate(86.4 205.7)" fill="#294364"/>
      <path id="Ellipse_243" d="M2.5-1A3.5,3.5,0,1,1-1,2.5,3.5,3.5,0,0,1,2.5-1Zm0,5A1.5,1.5,0,1,0,1,2.5,1.5,1.5,0,0,0,2.5,4Z" transform="translate(97.7 196.9)" fill="#294364"/>
      <path id="Path_26250" d="M100.2,155.6a1,1,0,0,1,.632.225l26.5,21.6a1,1,0,0,1,.368.775v33.4a1,1,0,0,1-1,1h-53a1,1,0,0,1-1-1V178.2a1,1,0,0,1,.369-.776l5.531-4.5V157.6a1,1,0,0,1,1-1h9.8a1,1,0,0,1,1,1v5.7l9.168-7.47A1,1,0,0,1,100.2,155.6Zm25.5,23.075L100.2,157.89l-10.168,8.285A1,1,0,0,1,88.4,165.4v-6.8H80.6v14.8a1,1,0,0,1-.369.776l-5.531,4.5V210.6h51Z" fill="#294364"/>
    </g>
  </g>
</svg>
