<svg xmlns="http://www.w3.org/2000/svg" xmlns:xlink="http://www.w3.org/1999/xlink" width="500" zoomAndPan="magnify" viewBox="0 0 375 374.999991" height="500" preserveAspectRatio="xMidYMid meet" version="1.0"><path fill="#caddff" d="M 37.28125 110.949219 C 30.109375 126.851562 19.492188 157.300781 23.757812 195.167969 C 29.234375 243.757812 56.339844 282.0625 82.707031 303.589844 C 170.203125 375.015625 330.375 328.871094 351.585938 261.589844 C 355.4375 249.382812 354.355469 237.609375 353.023438 223.121094 C 348.789062 177.046875 326.484375 163.355469 311.484375 114.429688 C 297.835938 69.910156 311.292969 64.902344 298.53125 45.109375 C 270.839844 2.171875 190.914062 0.0078125 135.914062 20.59375 C 114.789062 28.5 63.53125 52.753906 37.28125 110.949219 " fill-opacity="1" fill-rule="nonzero"/><path fill="#5479f7" d="M 145.484375 33.492188 L 75.847656 73.371094 L 34.339844 49.261719 L 104.34375 8.863281 L 145.484375 33.492188 " fill-opacity="1" fill-rule="nonzero"/><path fill="#000000" d="M 35.539062 49.261719 L 75.847656 72.675781 L 144.292969 33.480469 L 104.335938 9.5625 Z M 75.847656 73.972656 C 75.742188 73.972656 75.640625 73.945312 75.546875 73.890625 L 34.035156 49.78125 C 33.851562 49.675781 33.738281 49.476562 33.738281 49.261719 C 33.738281 49.046875 33.851562 48.847656 34.039062 48.738281 L 104.042969 8.34375 C 104.230469 8.234375 104.464844 8.234375 104.652344 8.347656 L 145.792969 32.976562 C 145.976562 33.085938 146.089844 33.285156 146.085938 33.5 C 146.082031 33.710938 145.96875 33.910156 145.78125 34.015625 L 76.144531 73.890625 C 76.054688 73.945312 75.949219 73.972656 75.847656 73.972656 " fill-opacity="1" fill-rule="nonzero"/><path fill="#99b9ff" d="M 75.859375 253.554688 L 75.859375 73.109375 L 145.507812 33.40625 L 145.507812 212.953125 L 75.859375 253.554688 " fill-opacity="1" fill-rule="nonzero"/><path fill="#000000" d="M 76.457031 73.457031 L 76.457031 252.507812 L 144.910156 212.609375 L 144.910156 34.441406 Z M 75.859375 254.15625 C 75.753906 254.15625 75.652344 254.128906 75.558594 254.074219 C 75.371094 253.96875 75.257812 253.769531 75.257812 253.554688 L 75.257812 73.109375 C 75.257812 72.894531 75.371094 72.691406 75.558594 72.585938 L 145.210938 32.882812 C 145.398438 32.777344 145.628906 32.777344 145.8125 32.882812 C 145.996094 32.992188 146.109375 33.191406 146.109375 33.402344 L 146.109375 212.953125 C 146.109375 213.167969 145.996094 213.367188 145.8125 213.472656 L 76.160156 254.074219 C 76.066406 254.128906 75.960938 254.15625 75.859375 254.15625 " fill-opacity="1" fill-rule="nonzero"/><path fill="#ffffff" d="M 75.859375 253.554688 L 75.859375 73.109375 L 34.558594 49.148438 L 34.558594 229.058594 L 75.859375 253.554688 " fill-opacity="1" fill-rule="nonzero"/><path fill="#000000" d="M 35.160156 228.71875 L 75.257812 252.5 L 75.257812 73.457031 L 35.160156 50.195312 Z M 75.855469 254.15625 C 75.75 254.15625 75.644531 254.128906 75.550781 254.070312 L 34.253906 229.578125 C 34.070312 229.46875 33.957031 229.273438 33.957031 229.0625 L 33.957031 49.152344 C 33.957031 48.9375 34.074219 48.738281 34.257812 48.632812 C 34.445312 48.523438 34.675781 48.523438 34.859375 48.632812 L 76.160156 72.589844 C 76.34375 72.699219 76.457031 72.898438 76.457031 73.113281 L 76.457031 253.554688 C 76.457031 253.769531 76.34375 253.972656 76.15625 254.078125 C 76.0625 254.128906 75.960938 254.15625 75.855469 254.15625 " fill-opacity="1" fill-rule="nonzero"/><path fill="#000000" d="M 53.117188 135.207031 C 53.011719 135.207031 52.90625 135.179688 52.8125 135.125 L 39.964844 127.503906 C 39.78125 127.394531 39.667969 127.199219 39.667969 126.984375 L 39.667969 80.914062 C 39.667969 80.699219 39.785156 80.5 39.972656 80.390625 C 40.15625 80.285156 40.386719 80.285156 40.570312 80.390625 L 70.449219 97.726562 C 70.636719 97.832031 70.75 98.03125 70.75 98.246094 L 70.75 125.890625 C 70.75 126.222656 70.480469 126.492188 70.148438 126.492188 C 69.816406 126.492188 69.546875 126.222656 69.546875 125.890625 L 69.546875 98.589844 L 40.871094 81.957031 L 40.871094 126.644531 L 53.425781 134.089844 C 53.710938 134.257812 53.804688 134.625 53.632812 134.910156 C 53.523438 135.101562 53.320312 135.207031 53.117188 135.207031 " fill-opacity="1" fill-rule="nonzero"/><path fill="#caddff" d="M 136.839844 72.011719 L 87.625 100.011719 C 86.007812 100.929688 84 99.761719 84 97.898438 L 84 97.894531 C 84 97.019531 84.46875 96.214844 85.226562 95.78125 L 134.441406 67.792969 C 136.0625 66.871094 138.070312 68.042969 138.066406 69.90625 C 138.066406 70.777344 137.597656 71.582031 136.839844 72.011719 " fill-opacity="1" fill-rule="nonzero"/><path fill="#caddff" d="M 136.839844 101.574219 L 87.625 129.570312 C 86.007812 130.488281 84 129.324219 84 127.460938 L 84 127.453125 C 84 126.582031 84.46875 125.773438 85.226562 125.34375 L 134.441406 97.351562 C 136.0625 96.429688 138.070312 97.601562 138.066406 99.46875 C 138.066406 100.339844 137.597656 101.144531 136.839844 101.574219 " fill-opacity="1" fill-rule="nonzero"/><path fill="#caddff" d="M 136.839844 116.351562 L 87.628906 144.351562 C 86.007812 145.273438 84 144.101562 84 142.242188 L 84 142.234375 C 84 141.363281 84.46875 140.554688 85.226562 140.125 L 134.441406 112.132812 C 136.0625 111.210938 138.074219 112.382812 138.066406 114.246094 C 138.066406 115.117188 137.597656 115.921875 136.839844 116.351562 " fill-opacity="1" fill-rule="nonzero"/><path fill="#caddff" d="M 136.839844 131.132812 L 87.628906 159.132812 C 86.007812 160.054688 84 158.882812 84 157.019531 L 84 157.015625 C 84 156.140625 84.46875 155.335938 85.226562 154.90625 L 134.441406 126.914062 C 136.0625 125.992188 138.074219 127.164062 138.066406 129.03125 C 138.066406 129.898438 137.597656 130.703125 136.839844 131.132812 " fill-opacity="1" fill-rule="nonzero"/><path fill="#caddff" d="M 134.519531 82.527344 L 85.226562 110.5625 C 84.46875 110.996094 84 111.800781 84 112.671875 L 84 112.679688 C 84 114.542969 86.007812 115.710938 87.625 114.789062 L 136.921875 86.75 C 137.679688 86.320312 138.148438 85.515625 138.148438 84.640625 L 138.148438 84.636719 C 138.148438 82.773438 136.140625 81.605469 134.519531 82.527344 " fill-opacity="1" fill-rule="nonzero"/><path fill="#5479f7" d="M 280.667969 41.34375 L 238.78125 65.507812 L 197.082031 41.203125 L 239.253906 16.632812 L 280.667969 41.34375 " fill-opacity="1" fill-rule="nonzero"/><path fill="#99b9ff" d="M 238.789062 245.226562 L 238.789062 65.304688 L 280.6875 41.273438 L 280.6875 220.503906 L 238.789062 245.226562 " fill-opacity="1" fill-rule="nonzero"/><path fill="#ffffff" d="M 238.789062 245.226562 L 238.789062 65.304688 L 197.253906 41.113281 L 197.253906 220.625 L 238.789062 245.226562 " fill-opacity="1" fill-rule="nonzero"/><path fill="#caddff" d="M 245.980469 89.726562 L 245.980469 89.730469 C 245.980469 91.59375 247.988281 92.761719 249.609375 91.839844 L 271.828125 79.203125 C 272.585938 78.773438 273.054688 77.96875 273.054688 77.097656 C 273.058594 75.230469 271.046875 74.058594 269.425781 74.980469 L 247.210938 87.617188 C 246.449219 88.050781 245.980469 88.855469 245.980469 89.726562 " fill-opacity="1" fill-rule="nonzero"/><path fill="#caddff" d="M 245.980469 104.507812 C 245.980469 106.371094 247.988281 107.539062 249.609375 106.621094 L 271.828125 93.980469 C 272.585938 93.550781 273.054688 92.746094 273.054688 91.875 C 273.058594 90.011719 271.046875 88.839844 269.425781 89.761719 L 247.210938 102.398438 C 246.449219 102.828125 245.980469 103.632812 245.980469 104.507812 " fill-opacity="1" fill-rule="nonzero"/><path fill="#5479f7" d="M 219.050781 76.683594 L 149.414062 116.5625 L 107.902344 92.453125 L 177.910156 52.054688 L 219.050781 76.683594 " fill-opacity="1" fill-rule="nonzero"/><path fill="#000000" d="M 109.101562 92.453125 L 149.414062 115.867188 L 217.859375 76.675781 L 177.902344 52.753906 Z M 149.414062 117.164062 C 149.308594 117.164062 149.203125 117.136719 149.109375 117.082031 L 107.601562 92.972656 C 107.417969 92.867188 107.300781 92.667969 107.300781 92.453125 C 107.300781 92.238281 107.417969 92.039062 107.601562 91.933594 L 177.609375 51.535156 C 177.796875 51.425781 178.03125 51.425781 178.21875 51.539062 L 219.359375 76.171875 C 219.542969 76.277344 219.652344 76.480469 219.652344 76.691406 C 219.648438 76.90625 219.535156 77.101562 219.347656 77.207031 L 149.710938 117.082031 C 149.621094 117.136719 149.515625 117.164062 149.414062 117.164062 " fill-opacity="1" fill-rule="nonzero"/><path fill="#99b9ff" d="M 149.425781 296.746094 L 149.425781 116.300781 L 219.078125 76.597656 L 219.078125 256.144531 L 149.425781 296.746094 " fill-opacity="1" fill-rule="nonzero"/><path fill="#000000" d="M 150.023438 116.652344 L 150.023438 295.699219 L 218.476562 255.800781 L 218.476562 77.632812 Z M 149.425781 297.347656 C 149.320312 297.347656 149.214844 297.320312 149.125 297.265625 C 148.9375 297.160156 148.824219 296.960938 148.824219 296.746094 L 148.824219 116.300781 C 148.824219 116.085938 148.9375 115.886719 149.125 115.777344 L 218.777344 76.074219 C 218.964844 75.96875 219.191406 75.96875 219.378906 76.078125 C 219.5625 76.1875 219.675781 76.382812 219.675781 76.597656 L 219.675781 256.144531 C 219.675781 256.359375 219.5625 256.558594 219.378906 256.667969 L 149.726562 297.265625 C 149.632812 297.320312 149.527344 297.347656 149.425781 297.347656 " fill-opacity="1" fill-rule="nonzero"/><path fill="#ffffff" d="M 149.425781 296.746094 L 149.425781 116.300781 L 108.125 92.34375 L 108.125 272.253906 L 149.425781 296.746094 " fill-opacity="1" fill-rule="nonzero"/><path fill="#000000" d="M 108.726562 271.910156 L 148.824219 295.691406 L 148.824219 116.644531 L 108.726562 93.386719 Z M 149.425781 297.347656 C 149.316406 297.347656 149.210938 297.320312 149.117188 297.261719 L 107.820312 272.769531 C 107.636719 272.660156 107.523438 272.464844 107.523438 272.25 L 107.523438 92.339844 C 107.523438 92.128906 107.640625 91.929688 107.824219 91.824219 C 108.011719 91.714844 108.242188 91.714844 108.425781 91.824219 L 149.722656 115.78125 C 149.910156 115.886719 150.023438 116.085938 150.023438 116.300781 L 150.023438 296.746094 C 150.023438 296.960938 149.910156 297.160156 149.722656 297.265625 C 149.628906 297.320312 149.527344 297.347656 149.425781 297.347656 " fill-opacity="1" fill-rule="nonzero"/><path fill="#ffffff" d="M 143.363281 185.714844 L 119.441406 199.273438 L 88.542969 181.324219 L 112.734375 167.378906 L 143.363281 185.714844 " fill-opacity="1" fill-rule="nonzero"/><path fill="#000000" d="M 89.742188 181.328125 L 119.445312 198.578125 L 142.167969 185.699219 L 112.730469 168.074219 Z M 119.441406 199.875 C 119.339844 199.875 119.234375 199.847656 119.140625 199.792969 L 88.238281 181.84375 C 88.054688 181.738281 87.941406 181.539062 87.941406 181.324219 C 87.941406 181.109375 88.054688 180.910156 88.242188 180.804688 L 112.4375 166.855469 C 112.625 166.75 112.855469 166.75 113.042969 166.863281 L 143.671875 185.199219 C 143.855469 185.308594 143.96875 185.507812 143.964844 185.71875 C 143.964844 185.9375 143.847656 186.128906 143.660156 186.234375 L 119.738281 199.796875 C 119.648438 199.847656 119.546875 199.875 119.441406 199.875 " fill-opacity="1" fill-rule="nonzero"/><path fill="#99b9ff" d="M 119.449219 206.035156 L 119.449219 199.078125 L 143.382812 185.648438 L 143.382812 191.941406 L 119.449219 206.035156 " fill-opacity="1" fill-rule="nonzero"/><path fill="#000000" d="M 120.050781 199.429688 L 120.050781 204.984375 L 142.78125 191.597656 L 142.78125 186.675781 Z M 119.449219 206.636719 C 119.347656 206.636719 119.246094 206.613281 119.152344 206.558594 C 118.964844 206.449219 118.851562 206.25 118.851562 206.035156 L 118.851562 199.078125 C 118.851562 198.863281 118.96875 198.660156 119.15625 198.554688 L 143.089844 185.125 C 143.273438 185.019531 143.5 185.019531 143.6875 185.128906 C 143.871094 185.238281 143.984375 185.4375 143.984375 185.648438 L 143.984375 191.941406 C 143.984375 192.152344 143.871094 192.347656 143.6875 192.457031 L 119.753906 206.554688 C 119.660156 206.609375 119.554688 206.636719 119.449219 206.636719 " fill-opacity="1" fill-rule="nonzero"/><path fill="#ffffff" d="M 119.449219 206.035156 L 119.449219 199.078125 L 88.707031 181.242188 L 88.707031 187.800781 L 119.449219 206.035156 " fill-opacity="1" fill-rule="nonzero"/><path fill="#000000" d="M 89.308594 187.460938 L 118.851562 204.980469 L 118.851562 199.425781 L 89.308594 182.289062 Z M 119.449219 206.636719 C 119.34375 206.636719 119.238281 206.609375 119.144531 206.554688 L 88.398438 188.320312 C 88.21875 188.210938 88.105469 188.015625 88.105469 187.800781 L 88.105469 181.242188 C 88.105469 181.027344 88.21875 180.828125 88.40625 180.722656 C 88.59375 180.613281 88.824219 180.617188 89.007812 180.722656 L 119.753906 198.558594 C 119.9375 198.664062 120.050781 198.863281 120.050781 199.078125 L 120.050781 206.035156 C 120.050781 206.253906 119.9375 206.453125 119.75 206.558594 C 119.65625 206.613281 119.554688 206.636719 119.449219 206.636719 " fill-opacity="1" fill-rule="nonzero"/><path fill="#99b9ff" d="M 117.214844 187.082031 L 111.582031 190.277344 L 104.304688 186.050781 L 110.003906 182.765625 L 117.214844 187.082031 " fill-opacity="1" fill-rule="nonzero"/><path fill="#99b9ff" d="M 135.660156 185.765625 L 127.265625 190.53125 L 104.277344 177.003906 L 112.804688 172.050781 L 135.660156 185.765625 " fill-opacity="1" fill-rule="nonzero"/><path fill="#5479f7" d="M 144.019531 185.765625 L 144.019531 139.386719 L 112.421875 121.058594 L 112.421875 167.023438 L 144.019531 185.765625 " fill-opacity="1" fill-rule="nonzero"/><path fill="#caddff" d="M 139.25 152.792969 L 139.25 142.292969 L 132.496094 138.375 L 132.496094 148.789062 L 139.25 152.792969 " fill-opacity="1" fill-rule="nonzero"/><path fill="#caddff" d="M 127.839844 146.125 L 127.839844 135.621094 L 121.085938 131.703125 L 121.085938 142.117188 L 127.839844 146.125 " fill-opacity="1" fill-rule="nonzero"/><path fill="#caddff" d="M 139.25 168.488281 L 139.25 157.988281 L 132.496094 154.070312 L 132.496094 164.484375 L 139.25 168.488281 " fill-opacity="1" fill-rule="nonzero"/><path fill="#caddff" d="M 210.722656 113.558594 L 161.507812 141.554688 C 159.890625 142.476562 157.878906 141.308594 157.878906 139.445312 L 157.878906 139.4375 C 157.878906 138.566406 158.351562 137.761719 159.109375 137.328125 L 208.324219 109.335938 C 209.945312 108.414062 211.953125 109.585938 211.953125 111.453125 C 211.949219 112.324219 211.480469 113.125 210.722656 113.558594 " fill-opacity="1" fill-rule="nonzero"/><path fill="#caddff" d="M 210.722656 143.117188 L 161.507812 171.117188 C 159.890625 172.035156 157.878906 170.867188 157.878906 169.007812 L 157.878906 169 C 157.878906 168.125 158.351562 167.320312 159.109375 166.890625 L 208.324219 138.898438 C 209.945312 137.976562 211.953125 139.148438 211.953125 141.011719 C 211.949219 141.886719 211.480469 142.6875 210.722656 143.117188 " fill-opacity="1" fill-rule="nonzero"/><path fill="#caddff" d="M 210.722656 157.898438 L 161.507812 185.898438 C 159.890625 186.816406 157.878906 185.648438 157.878906 183.785156 L 157.878906 183.777344 C 157.878906 182.90625 158.351562 182.101562 159.109375 181.671875 L 208.324219 153.675781 C 209.945312 152.753906 211.953125 153.929688 211.953125 155.792969 C 211.949219 156.664062 211.480469 157.46875 210.722656 157.898438 " fill-opacity="1" fill-rule="nonzero"/><path fill="#caddff" d="M 210.722656 172.679688 L 161.507812 200.675781 C 159.890625 201.597656 157.878906 200.429688 157.878906 198.566406 L 157.878906 198.5625 C 157.878906 197.6875 158.351562 196.878906 159.109375 196.449219 L 208.324219 168.457031 C 209.945312 167.535156 211.953125 168.710938 211.953125 170.574219 C 211.949219 171.445312 211.480469 172.25 210.722656 172.679688 " fill-opacity="1" fill-rule="nonzero"/><path fill="#caddff" d="M 208.402344 124.070312 L 159.109375 152.105469 C 158.351562 152.539062 157.878906 153.347656 157.878906 154.21875 L 157.878906 154.226562 C 157.878906 156.085938 159.890625 157.257812 161.507812 156.335938 L 210.800781 128.296875 C 211.5625 127.863281 212.03125 127.058594 212.03125 126.183594 L 212.03125 126.179688 C 212.03125 124.320312 210.023438 123.148438 208.402344 124.070312 " fill-opacity="1" fill-rule="nonzero"/><path fill="#5479f7" d="M 353.433594 84.925781 L 311.542969 109.089844 L 269.84375 84.785156 L 312.015625 60.214844 L 353.433594 84.925781 " fill-opacity="1" fill-rule="nonzero"/><path fill="#000000" d="M 271.039062 84.785156 L 311.546875 108.398438 L 352.246094 84.917969 L 312.011719 60.914062 Z M 311.542969 109.695312 C 311.441406 109.695312 311.335938 109.667969 311.242188 109.609375 L 269.542969 85.304688 C 269.355469 85.199219 269.242188 85 269.242188 84.785156 C 269.242188 84.570312 269.355469 84.375 269.542969 84.265625 L 311.714844 59.695312 C 311.902344 59.585938 312.136719 59.589844 312.324219 59.703125 L 353.738281 84.414062 C 353.921875 84.519531 354.035156 84.71875 354.03125 84.929688 C 354.03125 85.144531 353.917969 85.34375 353.730469 85.449219 L 311.84375 109.613281 C 311.75 109.667969 311.648438 109.695312 311.542969 109.695312 " fill-opacity="1" fill-rule="nonzero"/><path fill="#99b9ff" d="M 311.550781 288.8125 L 311.550781 108.886719 L 353.453125 84.859375 L 353.453125 264.089844 L 311.550781 288.8125 " fill-opacity="1" fill-rule="nonzero"/><path fill="#000000" d="M 312.152344 109.238281 L 312.152344 287.761719 L 352.847656 263.746094 L 352.847656 85.898438 Z M 311.550781 289.414062 C 311.449219 289.414062 311.347656 289.390625 311.253906 289.335938 C 311.066406 289.230469 310.949219 289.027344 310.949219 288.8125 L 310.949219 108.890625 C 310.949219 108.675781 311.066406 108.476562 311.25 108.367188 L 353.152344 84.339844 C 353.335938 84.234375 353.566406 84.234375 353.753906 84.339844 C 353.9375 84.449219 354.050781 84.644531 354.050781 84.859375 L 354.050781 264.089844 C 354.050781 264.300781 353.9375 264.5 353.753906 264.609375 L 311.855469 289.332031 C 311.761719 289.386719 311.65625 289.414062 311.550781 289.414062 " fill-opacity="1" fill-rule="nonzero"/><path fill="#ffffff" d="M 311.550781 288.8125 L 311.550781 108.890625 L 270.015625 84.699219 L 270.015625 264.210938 L 311.550781 288.8125 " fill-opacity="1" fill-rule="nonzero"/><path fill="#000000" d="M 270.617188 263.867188 L 310.949219 287.757812 L 310.949219 109.234375 L 270.617188 85.746094 Z M 311.550781 289.414062 C 311.445312 289.414062 311.339844 289.386719 311.246094 289.332031 L 269.710938 264.726562 C 269.527344 264.617188 269.414062 264.421875 269.414062 264.210938 L 269.414062 84.699219 C 269.414062 84.484375 269.527344 84.285156 269.714844 84.179688 C 269.902344 84.070312 270.132812 84.070312 270.320312 84.179688 L 311.855469 108.371094 C 312.039062 108.480469 312.152344 108.675781 312.152344 108.890625 L 312.152344 288.8125 C 312.152344 289.027344 312.035156 289.230469 311.851562 289.335938 C 311.757812 289.390625 311.65625 289.414062 311.550781 289.414062 " fill-opacity="1" fill-rule="nonzero"/><path fill="#5479f7" d="M 319.464844 129.671875 L 319.464844 129.675781 C 319.464844 131.539062 321.472656 132.707031 323.09375 131.789062 L 345.308594 119.148438 C 346.070312 118.71875 346.535156 117.914062 346.535156 117.042969 C 346.539062 115.179688 344.53125 114.003906 342.910156 114.925781 L 320.691406 127.566406 C 319.933594 127.996094 319.464844 128.800781 319.464844 129.671875 " fill-opacity="1" fill-rule="nonzero"/><path fill="#5479f7" d="M 319.464844 144.457031 C 319.464844 146.320312 321.472656 147.488281 323.09375 146.566406 L 345.308594 133.929688 C 346.070312 133.5 346.535156 132.695312 346.535156 131.824219 C 346.539062 129.957031 344.53125 128.789062 342.910156 129.710938 L 320.691406 142.34375 C 319.933594 142.777344 319.464844 143.582031 319.464844 144.457031 " fill-opacity="1" fill-rule="nonzero"/><path fill="#5479f7" d="M 319.464844 159.238281 C 319.464844 161.097656 321.472656 162.273438 323.09375 161.347656 L 345.308594 148.710938 C 346.070312 148.28125 346.535156 147.476562 346.535156 146.605469 C 346.539062 144.742188 344.53125 143.570312 342.910156 144.488281 L 320.691406 157.125 C 319.933594 157.558594 319.464844 158.363281 319.464844 159.238281 " fill-opacity="1" fill-rule="nonzero"/><path fill="#5479f7" d="M 319.464844 174.015625 L 319.464844 174.019531 C 319.464844 175.882812 321.472656 177.050781 323.09375 176.128906 L 345.308594 163.488281 C 346.070312 163.058594 346.535156 162.257812 346.535156 161.382812 C 346.539062 159.523438 344.53125 158.347656 342.910156 159.269531 L 320.691406 171.90625 C 319.933594 172.339844 319.464844 173.144531 319.464844 174.015625 " fill-opacity="1" fill-rule="nonzero"/><path fill="#5479f7" d="M 319.464844 188.796875 L 319.464844 188.800781 C 319.464844 190.660156 321.472656 191.828125 323.09375 190.910156 L 345.308594 178.269531 C 346.070312 177.839844 346.535156 177.039062 346.535156 176.167969 C 346.539062 174.300781 344.53125 173.128906 342.910156 174.050781 L 320.691406 186.6875 C 319.933594 187.117188 319.464844 187.925781 319.464844 188.796875 " fill-opacity="1" fill-rule="nonzero"/><path fill="#5479f7" d="M 292.617188 119.875 L 222.980469 159.75 L 181.472656 135.640625 L 251.476562 95.246094 L 292.617188 119.875 " fill-opacity="1" fill-rule="nonzero"/><path fill="#000000" d="M 182.671875 135.644531 L 222.980469 159.058594 L 291.425781 119.867188 L 251.46875 95.945312 Z M 222.976562 160.351562 C 222.878906 160.351562 222.769531 160.328125 222.675781 160.273438 L 181.167969 136.164062 C 180.984375 136.058594 180.867188 135.859375 180.871094 135.640625 C 180.871094 135.429688 180.984375 135.230469 181.167969 135.121094 L 251.175781 94.726562 C 251.363281 94.617188 251.597656 94.617188 251.785156 94.730469 L 292.925781 119.359375 C 293.109375 119.46875 293.21875 119.667969 293.21875 119.882812 C 293.214844 120.09375 293.101562 120.292969 292.914062 120.398438 L 223.277344 160.273438 C 223.183594 160.328125 223.082031 160.351562 222.976562 160.351562 " fill-opacity="1" fill-rule="nonzero"/><path fill="#99b9ff" d="M 222.988281 339.9375 L 222.988281 159.492188 L 292.640625 119.789062 L 292.640625 299.335938 L 222.988281 339.9375 " fill-opacity="1" fill-rule="nonzero"/><path fill="#000000" d="M 223.59375 159.839844 L 223.59375 338.890625 L 292.039062 298.992188 L 292.039062 120.820312 Z M 222.992188 340.539062 C 222.886719 340.539062 222.785156 340.511719 222.691406 340.457031 C 222.503906 340.351562 222.386719 340.152344 222.386719 339.9375 L 222.386719 159.492188 C 222.386719 159.277344 222.503906 159.074219 222.691406 158.96875 L 292.34375 119.265625 C 292.53125 119.160156 292.757812 119.160156 292.945312 119.269531 C 293.128906 119.375 293.242188 119.574219 293.242188 119.789062 L 293.242188 299.335938 C 293.242188 299.554688 293.128906 299.75 292.945312 299.855469 L 223.292969 340.457031 C 223.199219 340.511719 223.09375 340.539062 222.992188 340.539062 " fill-opacity="1" fill-rule="nonzero"/><path fill="#ffffff" d="M 222.988281 339.9375 L 222.988281 159.492188 L 181.691406 135.53125 L 181.691406 315.441406 L 222.988281 339.9375 " fill-opacity="1" fill-rule="nonzero"/><path fill="#000000" d="M 182.292969 315.101562 L 222.386719 338.882812 L 222.386719 159.839844 L 182.292969 136.578125 Z M 222.988281 340.539062 C 222.886719 340.539062 222.777344 340.507812 222.683594 340.453125 L 181.386719 315.960938 C 181.203125 315.851562 181.089844 315.65625 181.089844 315.441406 L 181.089844 135.53125 C 181.089844 135.320312 181.203125 135.121094 181.390625 135.015625 C 181.578125 134.90625 181.808594 134.90625 181.992188 135.015625 L 223.292969 158.972656 C 223.476562 159.078125 223.589844 159.277344 223.589844 159.492188 L 223.589844 339.9375 C 223.589844 340.152344 223.472656 340.351562 223.289062 340.457031 C 223.195312 340.511719 223.09375 340.539062 222.988281 340.539062 " fill-opacity="1" fill-rule="nonzero"/><path fill="#ffffff" d="M 217.808594 227.492188 L 193.886719 241.054688 L 163.152344 223.015625 L 187.179688 209.160156 L 217.808594 227.492188 " fill-opacity="1" fill-rule="nonzero"/><path fill="#000000" d="M 164.347656 223.023438 L 193.894531 240.359375 L 216.613281 227.480469 L 187.175781 209.855469 Z M 193.886719 241.652344 C 193.785156 241.652344 193.675781 241.625 193.585938 241.570312 L 162.851562 223.535156 C 162.664062 223.429688 162.550781 223.230469 162.554688 223.015625 C 162.554688 222.800781 162.667969 222.605469 162.855469 222.496094 L 186.878906 208.636719 C 187.066406 208.527344 187.300781 208.53125 187.488281 208.644531 L 218.117188 226.976562 C 218.300781 227.085938 218.410156 227.285156 218.410156 227.5 C 218.40625 227.714844 218.289062 227.910156 218.105469 228.015625 L 194.183594 241.574219 C 194.09375 241.625 193.988281 241.652344 193.886719 241.652344 " fill-opacity="1" fill-rule="nonzero"/><path fill="#99b9ff" d="M 193.894531 247.816406 L 193.894531 240.855469 L 217.828125 227.429688 L 217.828125 233.71875 L 193.894531 247.816406 " fill-opacity="1" fill-rule="nonzero"/><path fill="#000000" d="M 194.496094 241.210938 L 194.496094 246.761719 L 217.226562 233.375 L 217.226562 228.453125 Z M 193.894531 248.417969 C 193.792969 248.417969 193.6875 248.390625 193.597656 248.335938 C 193.410156 248.230469 193.292969 248.03125 193.292969 247.816406 L 193.292969 240.855469 C 193.292969 240.640625 193.414062 240.4375 193.601562 240.335938 L 217.53125 226.90625 C 217.71875 226.800781 217.945312 226.800781 218.132812 226.910156 C 218.3125 227.015625 218.429688 227.214844 218.429688 227.429688 L 218.429688 233.71875 C 218.429688 233.929688 218.316406 234.128906 218.132812 234.238281 L 194.203125 248.332031 C 194.105469 248.390625 194 248.417969 193.894531 248.417969 " fill-opacity="1" fill-rule="nonzero"/><path fill="#ffffff" d="M 193.894531 247.816406 L 193.894531 240.855469 L 163.152344 223.023438 L 163.152344 229.582031 L 193.894531 247.816406 " fill-opacity="1" fill-rule="nonzero"/><path fill="#000000" d="M 163.75 229.238281 L 193.292969 246.761719 L 193.292969 241.207031 L 163.75 224.066406 Z M 193.894531 248.417969 C 193.789062 248.417969 193.683594 248.386719 193.589844 248.332031 L 162.84375 230.097656 C 162.660156 229.988281 162.550781 229.792969 162.550781 229.582031 L 162.550781 223.023438 C 162.550781 222.808594 162.664062 222.609375 162.851562 222.5 C 163.035156 222.394531 163.265625 222.394531 163.453125 222.5 L 194.199219 240.339844 C 194.382812 240.445312 194.496094 240.644531 194.496094 240.855469 L 194.496094 247.816406 C 194.496094 248.03125 194.378906 248.230469 194.191406 248.339844 C 194.101562 248.390625 194 248.417969 193.894531 248.417969 " fill-opacity="1" fill-rule="nonzero"/><path fill="#ffffff" d="M 217.28125 227.042969 L 217.28125 182.097656 C 217.28125 181.160156 216.78125 180.292969 215.96875 179.824219 L 188.480469 163.875 C 188 163.597656 187.402344 163.945312 187.402344 164.496094 L 187.402344 209.324219 L 217.28125 227.042969 " fill-opacity="1" fill-rule="nonzero"/><path fill="#000000" d="M 188.003906 208.980469 L 216.679688 225.988281 L 216.679688 182.097656 C 216.679688 181.375 216.292969 180.703125 215.667969 180.34375 L 188.179688 164.394531 C 188.140625 164.371094 188.101562 164.371094 188.0625 164.394531 C 188.023438 164.417969 188.003906 164.453125 188.003906 164.496094 Z M 217.28125 227.644531 C 217.171875 227.644531 217.066406 227.617188 216.972656 227.558594 L 187.09375 209.839844 C 186.910156 209.734375 186.800781 209.535156 186.800781 209.324219 L 186.800781 164.496094 C 186.800781 164.019531 187.046875 163.59375 187.460938 163.355469 C 187.875 163.113281 188.371094 163.113281 188.78125 163.355469 L 216.269531 179.300781 C 217.265625 179.878906 217.882812 180.949219 217.882812 182.097656 L 217.882812 227.042969 C 217.882812 227.257812 217.765625 227.457031 217.578125 227.566406 C 217.484375 227.617188 217.382812 227.644531 217.28125 227.644531 " fill-opacity="1" fill-rule="nonzero"/><path fill="#5479f7" d="M 284.203125 153.90625 L 234.988281 181.902344 C 233.371094 182.824219 231.363281 181.652344 231.363281 179.792969 L 231.363281 179.785156 C 231.363281 178.914062 231.832031 178.109375 232.589844 177.675781 L 281.804688 149.683594 C 283.421875 148.761719 285.4375 149.933594 285.433594 151.800781 C 285.429688 152.671875 284.960938 153.472656 284.203125 153.90625 " fill-opacity="1" fill-rule="nonzero"/><path fill="#5479f7" d="M 284.203125 183.464844 L 234.988281 211.464844 C 233.371094 212.382812 231.363281 211.214844 231.363281 209.355469 L 231.363281 209.347656 C 231.363281 208.472656 231.832031 207.667969 232.589844 207.238281 L 281.804688 179.246094 C 283.421875 178.324219 285.4375 179.496094 285.433594 181.359375 C 285.429688 182.234375 284.960938 183.035156 284.203125 183.464844 " fill-opacity="1" fill-rule="nonzero"/><path fill="#5479f7" d="M 284.203125 198.246094 L 234.988281 226.246094 C 233.371094 227.164062 231.363281 225.996094 231.363281 224.132812 L 231.363281 224.128906 C 231.363281 223.253906 231.832031 222.449219 232.589844 222.015625 L 281.804688 194.023438 C 283.421875 193.105469 285.4375 194.277344 285.433594 196.140625 C 285.429688 197.011719 284.960938 197.816406 284.203125 198.246094 " fill-opacity="1" fill-rule="nonzero"/><path fill="#5479f7" d="M 284.203125 213.027344 L 234.988281 241.023438 C 233.371094 241.945312 231.363281 240.777344 231.363281 238.914062 L 231.363281 238.90625 C 231.363281 238.035156 231.832031 237.230469 232.589844 236.796875 L 281.804688 208.808594 C 283.421875 207.882812 285.4375 209.058594 285.433594 210.921875 C 285.429688 211.792969 284.960938 212.597656 284.203125 213.027344 " fill-opacity="1" fill-rule="nonzero"/><path fill="#5479f7" d="M 281.882812 164.417969 L 232.589844 192.457031 C 231.832031 192.886719 231.363281 193.691406 231.363281 194.566406 L 231.363281 194.574219 C 231.363281 196.433594 233.375 197.601562 234.992188 196.683594 L 284.285156 168.644531 C 285.042969 168.210938 285.511719 167.40625 285.511719 166.53125 C 285.511719 164.667969 283.503906 163.5 281.882812 164.417969 " fill-opacity="1" fill-rule="nonzero"/><path fill="#000000" d="M 328.914062 39.378906 C 328.757812 39.378906 328.605469 39.320312 328.488281 39.203125 L 327.113281 37.828125 C 326.878906 37.59375 326.878906 37.214844 327.113281 36.980469 C 327.347656 36.746094 327.730469 36.746094 327.964844 36.980469 L 329.339844 38.355469 C 329.570312 38.585938 329.570312 38.96875 329.339844 39.203125 C 329.21875 39.320312 329.066406 39.378906 328.914062 39.378906 " fill-opacity="1" fill-rule="nonzero"/><path fill="#000000" d="M 334.105469 44.566406 C 333.949219 44.566406 333.796875 44.511719 333.675781 44.390625 L 332.304688 43.019531 C 332.070312 42.785156 332.070312 42.402344 332.304688 42.167969 C 332.539062 41.933594 332.917969 41.933594 333.152344 42.167969 L 334.527344 43.542969 C 334.761719 43.777344 334.761719 44.160156 334.527344 44.390625 C 334.410156 44.511719 334.253906 44.566406 334.105469 44.566406 " fill-opacity="1" fill-rule="nonzero"/><path fill="#000000" d="M 327.539062 44.570312 C 327.386719 44.570312 327.230469 44.507812 327.113281 44.390625 C 326.878906 44.15625 326.878906 43.777344 327.113281 43.542969 L 328.488281 42.167969 C 328.722656 41.933594 329.105469 41.933594 329.339844 42.167969 C 329.570312 42.40625 329.570312 42.785156 329.339844 43.019531 L 327.964844 44.390625 C 327.847656 44.507812 327.691406 44.570312 327.539062 44.570312 " fill-opacity="1" fill-rule="nonzero"/><path fill="#000000" d="M 332.730469 39.378906 C 332.574219 39.378906 332.421875 39.320312 332.304688 39.203125 C 332.070312 38.964844 332.070312 38.585938 332.304688 38.351562 L 333.675781 36.980469 C 333.910156 36.742188 334.292969 36.742188 334.527344 36.980469 C 334.761719 37.214844 334.761719 37.59375 334.527344 37.828125 L 333.152344 39.203125 C 333.039062 39.320312 332.882812 39.378906 332.730469 39.378906 " fill-opacity="1" fill-rule="nonzero"/><path fill="#000000" d="M 129.414062 267.609375 C 129.082031 267.609375 128.8125 267.335938 128.8125 267.007812 L 128.8125 265.0625 C 128.8125 264.734375 129.082031 264.460938 129.414062 264.460938 C 129.746094 264.460938 130.015625 264.734375 130.015625 265.0625 L 130.015625 267.007812 C 130.015625 267.335938 129.746094 267.609375 129.414062 267.609375 " fill-opacity="1" fill-rule="nonzero"/><path fill="#000000" d="M 129.414062 260.269531 C 129.082031 260.269531 128.8125 259.996094 128.8125 259.667969 L 128.8125 257.722656 C 128.8125 257.390625 129.082031 257.121094 129.414062 257.121094 C 129.746094 257.121094 130.015625 257.390625 130.015625 257.722656 L 130.015625 259.667969 C 130.015625 259.996094 129.746094 260.269531 129.414062 260.269531 " fill-opacity="1" fill-rule="nonzero"/><path fill="#000000" d="M 134.054688 262.96875 L 132.109375 262.96875 C 131.777344 262.96875 131.507812 262.695312 131.507812 262.367188 C 131.507812 262.03125 131.777344 261.761719 132.109375 261.761719 L 134.054688 261.761719 C 134.386719 261.761719 134.65625 262.03125 134.65625 262.367188 C 134.65625 262.695312 134.386719 262.96875 134.054688 262.96875 " fill-opacity="1" fill-rule="nonzero"/><path fill="#000000" d="M 126.714844 262.96875 L 124.773438 262.96875 C 124.441406 262.96875 124.171875 262.695312 124.171875 262.367188 C 124.171875 262.03125 124.441406 261.761719 124.773438 261.761719 L 126.714844 261.761719 C 127.046875 261.761719 127.316406 262.03125 127.316406 262.367188 C 127.316406 262.695312 127.046875 262.96875 126.714844 262.96875 " fill-opacity="1" fill-rule="nonzero"/><path fill="#000000" d="M 302.371094 20.289062 C 301.363281 20.289062 300.542969 21.109375 300.542969 22.113281 C 300.542969 23.125 301.363281 23.945312 302.371094 23.945312 C 303.378906 23.945312 304.199219 23.125 304.199219 22.113281 C 304.199219 21.109375 303.378906 20.289062 302.371094 20.289062 Z M 302.371094 25.144531 C 300.703125 25.144531 299.34375 23.789062 299.34375 22.113281 C 299.34375 20.445312 300.703125 19.085938 302.371094 19.085938 C 304.042969 19.085938 305.402344 20.445312 305.402344 22.113281 C 305.402344 23.789062 304.042969 25.144531 302.371094 25.144531 " fill-opacity="1" fill-rule="nonzero"/><path fill="#000000" d="M 126.894531 305.566406 C 125.363281 305.566406 124.113281 306.816406 124.113281 308.351562 C 124.113281 309.882812 125.363281 311.132812 126.894531 311.132812 C 128.429688 311.132812 129.679688 309.882812 129.679688 308.351562 C 129.679688 306.816406 128.429688 305.566406 126.894531 305.566406 Z M 126.894531 312.335938 C 124.699219 312.335938 122.914062 310.546875 122.914062 308.351562 C 122.914062 306.152344 124.699219 304.363281 126.894531 304.363281 C 129.09375 304.363281 130.878906 306.152344 130.878906 308.351562 C 130.878906 310.546875 129.09375 312.335938 126.894531 312.335938 " fill-opacity="1" fill-rule="nonzero"/><path fill="#000000" d="M 142.070312 318.0625 C 141.351562 318.0625 140.769531 318.644531 140.769531 319.363281 C 140.769531 320.082031 141.351562 320.664062 142.070312 320.664062 C 142.789062 320.664062 143.371094 320.082031 143.371094 319.363281 C 143.371094 318.644531 142.789062 318.0625 142.070312 318.0625 Z M 142.070312 321.867188 C 140.691406 321.867188 139.566406 320.746094 139.566406 319.363281 C 139.566406 317.984375 140.691406 316.859375 142.070312 316.859375 C 143.449219 316.859375 144.574219 317.984375 144.574219 319.363281 C 144.574219 320.746094 143.449219 321.867188 142.070312 321.867188 " fill-opacity="1" fill-rule="nonzero"/><path fill="#ffffff" d="M 39.203125 309.480469 L 37.027344 321.847656 L 43.453125 322.601562 L 46.074219 310.988281 L 39.203125 309.480469 " fill-opacity="1" fill-rule="nonzero"/><path fill="#000000" d="M 37.730469 321.324219 L 42.988281 321.941406 L 45.355469 311.449219 L 39.6875 310.203125 Z M 43.453125 323.203125 C 43.429688 323.203125 43.40625 323.203125 43.382812 323.199219 L 36.957031 322.445312 C 36.792969 322.425781 36.644531 322.339844 36.546875 322.207031 C 36.445312 322.074219 36.40625 321.90625 36.433594 321.742188 L 38.609375 309.378906 C 38.636719 309.214844 38.730469 309.074219 38.867188 308.980469 C 39.003906 308.890625 39.171875 308.859375 39.332031 308.894531 L 46.207031 310.402344 C 46.363281 310.4375 46.496094 310.535156 46.582031 310.667969 C 46.667969 310.804688 46.699219 310.96875 46.664062 311.125 L 44.039062 322.734375 C 43.976562 323.011719 43.734375 323.203125 43.453125 323.203125 " fill-opacity="1" fill-rule="nonzero"/><path fill="#5479f7" d="M 44.152344 319.925781 C 42.050781 320.769531 39.648438 320.226562 38.113281 318.5625 L 37.308594 317.6875 C 37.027344 317.382812 36.539062 317.417969 36.308594 317.761719 L 31.777344 324.4375 C 30.964844 325.53125 31.082031 327.191406 32.0625 328.144531 C 33.34375 329.386719 35.289062 331.0625 37.648438 332.40625 C 42.097656 334.9375 45.941406 340.332031 50.496094 339.027344 C 55.046875 337.722656 54.8125 337.503906 55.324219 336.066406 C 55.839844 334.625 53.660156 331.671875 50.035156 328.367188 C 47.820312 326.34375 45.667969 321.976562 44.984375 320.277344 C 44.851562 319.949219 44.480469 319.792969 44.152344 319.925781 " fill-opacity="1" fill-rule="nonzero"/><path fill="#000000" d="M 44.152344 319.925781 L 44.15625 319.925781 Z M 36.867188 318.09375 L 36.804688 318.097656 L 32.273438 324.777344 C 31.617188 325.660156 31.714844 326.972656 32.480469 327.714844 C 33.683594 328.882812 35.609375 330.554688 37.945312 331.882812 C 39.394531 332.707031 40.769531 333.816406 42.097656 334.890625 C 44.882812 337.132812 47.515625 339.257812 50.328125 338.449219 C 54.261719 337.324219 54.328125 337.121094 54.65625 336.15625 C 54.6875 336.066406 54.722656 335.96875 54.761719 335.863281 C 55.078125 334.972656 53.617188 332.445312 49.632812 328.8125 C 47.226562 326.617188 45.011719 321.960938 44.425781 320.5 L 44.375 320.480469 C 42.058594 321.417969 39.363281 320.804688 37.671875 318.96875 Z M 49.085938 339.828125 C 46.308594 339.828125 43.789062 337.796875 41.34375 335.824219 C 40.050781 334.78125 38.714844 333.703125 37.351562 332.929688 C 34.90625 331.535156 32.898438 329.792969 31.644531 328.578125 C 30.460938 327.429688 30.304688 325.414062 31.292969 324.078125 L 35.808594 317.421875 C 36.023438 317.105469 36.363281 316.910156 36.746094 316.878906 C 37.125 316.851562 37.492188 317 37.75 317.277344 L 38.554688 318.15625 C 39.914062 319.628906 42.070312 320.113281 43.929688 319.367188 C 44.238281 319.242188 44.574219 319.246094 44.878906 319.375 C 45.183594 319.503906 45.417969 319.746094 45.542969 320.054688 C 46.246094 321.804688 48.367188 326.03125 50.441406 327.921875 C 53.34375 330.570312 56.644531 334.167969 55.890625 336.269531 C 55.855469 336.367188 55.824219 336.457031 55.796875 336.546875 C 55.277344 338.0625 54.886719 338.394531 50.660156 339.605469 C 50.125 339.757812 49.601562 339.828125 49.085938 339.828125 " fill-opacity="1" fill-rule="nonzero"/><path fill="#000000" d="M 55.8125 336.390625 C 55.8125 336.390625 52.109375 339.109375 47.074219 336.304688 C 43.722656 334.433594 31.359375 324.011719 31.359375 324.011719 L 30.285156 325.472656 C 29.738281 326.214844 29.660156 327.625 30.355469 328.234375 C 33.492188 330.980469 42.699219 338.226562 47.550781 339.664062 C 55.011719 341.875 55.8125 336.390625 55.8125 336.390625 " fill-opacity="1" fill-rule="nonzero"/><path fill="#ffffff" d="M 74.003906 312.007812 L 70.855469 329.085938 L 77.933594 332.613281 L 81.945312 314.035156 L 74.003906 312.007812 " fill-opacity="1" fill-rule="nonzero"/><path fill="#000000" d="M 71.527344 328.75 L 77.507812 331.730469 L 81.234375 314.472656 L 74.480469 312.746094 Z M 77.933594 333.214844 C 77.839844 333.214844 77.746094 333.195312 77.664062 333.152344 L 70.585938 329.625 C 70.347656 329.503906 70.214844 329.238281 70.265625 328.976562 L 73.414062 311.894531 C 73.445312 311.734375 73.542969 311.585938 73.679688 311.5 C 73.820312 311.410156 73.992188 311.382812 74.15625 311.421875 L 82.09375 313.453125 C 82.40625 313.53125 82.601562 313.84375 82.53125 314.160156 L 78.519531 332.742188 C 78.480469 332.925781 78.359375 333.078125 78.191406 333.160156 C 78.109375 333.199219 78.019531 333.214844 77.933594 333.214844 " fill-opacity="1" fill-rule="nonzero"/><path fill="#5479f7" d="M 69.792969 327.90625 C 69.542969 329.539062 67.632812 332.710938 67.570312 335.4375 C 67.53125 337.144531 68.789062 338.601562 70.472656 338.839844 C 75.230469 339.511719 87.53125 340.175781 96.75 339.449219 C 97.382812 339.398438 98.503906 338.949219 98.832031 337.371094 C 99.941406 332.066406 90.761719 330.648438 80.726562 326.671875 C 80.332031 326.515625 79.886719 326.601562 79.578125 326.890625 L 78.476562 327.9375 C 77.378906 328.984375 75.761719 329.265625 74.375 328.648438 L 71.085938 327.191406 C 70.527344 326.945312 69.882812 327.296875 69.792969 327.90625 " fill-opacity="1" fill-rule="nonzero"/><path fill="#000000" d="M 69.792969 327.90625 L 69.796875 327.90625 Z M 70.710938 327.714844 C 70.644531 327.714844 70.589844 327.734375 70.554688 327.753906 C 70.5 327.78125 70.410156 327.855469 70.386719 328 C 70.277344 328.695312 69.929688 329.574219 69.523438 330.589844 C 68.90625 332.136719 68.207031 333.882812 68.171875 335.449219 C 68.140625 336.847656 69.164062 338.046875 70.558594 338.246094 C 75.507812 338.945312 87.664062 339.5625 96.703125 338.847656 C 96.910156 338.832031 97.945312 338.679688 98.242188 337.246094 C 98.984375 333.707031 94.089844 332.023438 87.320312 329.699219 C 85.132812 328.945312 82.867188 328.167969 80.503906 327.230469 C 80.328125 327.160156 80.128906 327.199219 79.992188 327.328125 L 78.890625 328.371094 C 77.613281 329.589844 75.742188 329.914062 74.132812 329.199219 L 70.84375 327.742188 C 70.796875 327.722656 70.75 327.714844 70.710938 327.714844 Z M 87.585938 340.367188 C 80.675781 340.367188 73.820312 339.921875 70.390625 339.433594 C 68.394531 339.152344 66.921875 337.425781 66.96875 335.421875 C 67.011719 333.640625 67.785156 331.703125 68.40625 330.144531 C 68.769531 329.238281 69.113281 328.378906 69.199219 327.816406 C 69.269531 327.335938 69.554688 326.929688 69.976562 326.699219 C 70.398438 326.46875 70.890625 326.449219 71.328125 326.640625 L 74.617188 328.101562 C 75.785156 328.617188 77.136719 328.382812 78.0625 327.5 L 79.164062 326.453125 C 79.636719 326.003906 80.335938 325.871094 80.949219 326.113281 C 83.285156 327.039062 85.535156 327.8125 87.710938 328.5625 C 94.789062 330.992188 100.375 332.910156 99.421875 337.492188 C 99.054688 339.253906 97.777344 339.96875 96.800781 340.046875 C 93.933594 340.273438 90.753906 340.367188 87.585938 340.367188 " fill-opacity="1" fill-rule="nonzero"/><path fill="#000000" d="M 67.367188 334.722656 C 67.367188 334.722656 67.359375 335 67.355469 335.132812 C 67.3125 336.839844 68.574219 338.296875 70.253906 338.539062 C 75.015625 339.210938 87.507812 340.789062 96.726562 340.058594 C 97.359375 340.011719 98.503906 338.949219 98.832031 337.371094 C 98.933594 336.886719 98.886719 336.011719 98.886719 336.011719 L 98.230469 336.035156 C 88.921875 336.382812 79.597656 336.046875 70.335938 335.023438 L 67.367188 334.722656 " fill-opacity="1" fill-rule="nonzero"/><path fill="#000000" d="M 64.539062 213.617188 C 64.742188 214.558594 61.546875 221.066406 62.066406 227.457031 C 62.882812 237.472656 63.527344 242.675781 58.15625 252.628906 C 52.972656 262.226562 43.617188 271.398438 36.933594 311.355469 C 36.597656 313.355469 38.132812 315.183594 40.164062 315.210938 L 45.296875 315.269531 C 46.558594 315.285156 47.71875 314.585938 48.289062 313.460938 C 51.664062 306.824219 62.085938 287.199219 66.164062 279.839844 C 70.953125 271.199219 84.597656 249.570312 85.394531 239.203125 C 86.140625 229.429688 85.457031 215.457031 85.375 213.890625 C 85.371094 213.804688 85.304688 213.742188 85.21875 213.738281 L 64.539062 213.617188 " fill-opacity="1" fill-rule="nonzero"/><path fill="#000000" d="M 93.371094 211.292969 C 93.371094 211.292969 105.523438 236.585938 98.242188 267.046875 C 92.976562 289.078125 85.507812 313.636719 83.109375 320.632812 C 82.636719 322.003906 81.34375 322.921875 79.898438 322.914062 L 74.289062 322.890625 C 72.265625 322.882812 70.703125 321.105469 70.953125 319.097656 C 72.394531 307.464844 76.839844 269.808594 76.515625 260.707031 C 75.980469 245.699219 71.570312 240.445312 70.804688 229.886719 C 69.96875 218.382812 73.164062 211.503906 73.164062 211.503906 L 93.371094 211.292969 " fill-opacity="1" fill-rule="nonzero"/><path fill="#caddff" d="M 75.71875 265.28125 C 75.699219 265.28125 75.679688 265.28125 75.660156 265.28125 C 75.332031 265.25 75.089844 264.953125 75.117188 264.625 C 76.15625 253.402344 73.9375 247.101562 71.976562 241.546875 C 70.542969 237.476562 69.1875 233.632812 69.386719 228.542969 C 69.398438 228.210938 69.675781 227.945312 70.011719 227.964844 C 70.34375 227.976562 70.601562 228.257812 70.589844 228.589844 C 70.398438 233.449219 71.65625 237.015625 73.113281 241.148438 C 75.109375 246.820312 77.378906 253.25 76.316406 264.734375 C 76.289062 265.046875 76.027344 265.28125 75.71875 265.28125 " fill-opacity="1" fill-rule="nonzero"/><path fill="#ffffff" d="M 98.332031 167.636719 C 100.976562 170.496094 104.527344 173.984375 107.308594 175.316406 C 111.449219 177.300781 114.910156 177.71875 118.984375 173.644531 C 123.054688 169.566406 126.96875 165.886719 127.582031 164.015625 C 128.191406 162.144531 128.65625 158.625 129.933594 157.347656 C 131.207031 156.066406 132.09375 155.03125 132.585938 154.085938 C 133.078125 153.140625 133.441406 152.679688 133.972656 152.746094 C 134.886719 152.859375 135.3125 154.414062 133.855469 156.335938 C 132.4375 158.210938 133.460938 159.121094 134.394531 158.921875 C 136.082031 158.5625 136.316406 157.5625 136.339844 156.328125 C 136.371094 154.9375 135.085938 153.453125 135.890625 152.871094 C 138.277344 151.132812 139.691406 158.425781 139.644531 159.285156 C 139.53125 161.292969 137.316406 162.554688 135.628906 163.480469 C 133.941406 164.40625 132.304688 165.566406 131.1875 167.046875 C 130.070312 168.527344 122.078125 184.523438 115.523438 187.796875 C 107.957031 191.574219 92.355469 180.28125 88.601562 177.945312 C 85.265625 175.871094 96.253906 165.386719 98.332031 167.636719 " fill-opacity="1" fill-rule="nonzero"/><path fill="#000000" d="M 135.328125 154.691406 C 135.183594 155.332031 134.847656 156.027344 134.335938 156.699219 C 133.742188 157.484375 133.683594 157.996094 133.8125 158.199219 C 133.902344 158.339844 134.105469 158.367188 134.269531 158.335938 C 135.496094 158.070312 135.714844 157.5 135.738281 156.316406 C 135.75 155.84375 135.554688 155.3125 135.367188 154.800781 C 135.355469 154.765625 135.34375 154.726562 135.328125 154.691406 Z M 97.507812 167.921875 C 97.324219 167.921875 97.09375 167.96875 96.832031 168.050781 C 94.050781 168.949219 88.914062 173.925781 88.589844 176.546875 C 88.523438 177.109375 88.730469 177.320312 88.921875 177.4375 C 89.328125 177.691406 89.878906 178.050781 90.539062 178.484375 C 95.539062 181.765625 108.816406 190.472656 115.253906 187.257812 C 120.371094 184.699219 126.625 173.734375 129.296875 169.054688 C 130 167.820312 130.464844 167.003906 130.707031 166.683594 C 131.734375 165.320312 133.25 164.101562 135.339844 162.953125 C 136.777344 162.164062 138.945312 160.976562 139.042969 159.25 C 139.082031 158.59375 138.121094 153.96875 136.832031 153.269531 C 136.703125 153.199219 136.539062 153.140625 136.242188 153.355469 C 136.171875 153.5 136.375 154.054688 136.496094 154.386719 C 136.710938 154.976562 136.957031 155.640625 136.941406 156.339844 C 136.914062 157.726562 136.597656 159.066406 134.519531 159.507812 C 133.824219 159.65625 133.148438 159.398438 132.796875 158.84375 C 132.527344 158.417969 132.242188 157.476562 133.378906 155.976562 C 134.21875 154.863281 134.308594 153.980469 134.132812 153.566406 C 134.074219 153.429688 133.996094 153.351562 133.898438 153.34375 C 133.738281 153.316406 133.480469 153.667969 133.117188 154.363281 C 132.628906 155.300781 131.804688 156.320312 130.359375 157.769531 C 129.566406 158.5625 129.074219 160.59375 128.679688 162.226562 C 128.503906 162.953125 128.335938 163.644531 128.152344 164.203125 C 127.582031 165.949219 124.722656 168.785156 121.105469 172.382812 C 120.546875 172.933594 119.980469 173.496094 119.410156 174.070312 C 115.082031 178.398438 111.339844 177.917969 107.046875 175.859375 C 104.746094 174.757812 101.667969 172.128906 97.894531 168.046875 C 97.816406 167.964844 97.683594 167.921875 97.507812 167.921875 Z M 111.902344 189.160156 C 104.621094 189.160156 94.601562 182.585938 89.878906 179.488281 C 89.230469 179.0625 88.6875 178.707031 88.285156 178.457031 C 87.601562 178.03125 87.289062 177.300781 87.398438 176.402344 C 87.777344 173.296875 93.289062 167.933594 96.460938 166.90625 C 97.746094 166.492188 98.429688 166.851562 98.773438 167.230469 C 102.394531 171.144531 105.433594 173.753906 107.566406 174.773438 C 111.507812 176.664062 114.71875 177.0625 118.558594 173.21875 C 119.128906 172.644531 119.699219 172.082031 120.257812 171.527344 C 123.484375 168.324219 126.53125 165.300781 127.011719 163.828125 C 127.179688 163.3125 127.339844 162.648438 127.511719 161.941406 C 127.964844 160.074219 128.480469 157.953125 129.507812 156.921875 C 130.84375 155.578125 131.628906 154.617188 132.054688 153.808594 C 132.425781 153.09375 132.988281 152.015625 134.046875 152.148438 C 134.5 152.207031 134.886719 152.464844 135.128906 152.875 C 135.207031 152.695312 135.335938 152.527344 135.535156 152.382812 C 136.140625 151.945312 136.804688 151.882812 137.40625 152.210938 C 139.457031 153.328125 140.277344 158.738281 140.242188 159.316406 C 140.109375 161.710938 137.585938 163.09375 135.917969 164.007812 C 133.980469 165.070312 132.589844 166.183594 131.664062 167.410156 C 131.472656 167.667969 130.972656 168.539062 130.339844 169.648438 C 127.386719 174.832031 121.234375 185.613281 115.789062 188.332031 C 114.636719 188.910156 113.320312 189.160156 111.902344 189.160156 " fill-opacity="1" fill-rule="nonzero"/><path fill="#5479f7" d="M 107.199219 172.085938 C 102.480469 169.566406 98.382812 166.035156 95.75 163.492188 C 92.976562 160.808594 89.40625 159.082031 85.578125 158.59375 C 77.304688 157.53125 66.871094 158.578125 61.640625 162.03125 C 55.050781 166.378906 56.023438 173.378906 57.410156 176.542969 C 58.121094 178.167969 60.820312 184.953125 61.527344 186.929688 C 65.90625 199.199219 63.929688 208.8125 62.859375 216.976562 C 62.710938 218.101562 63.445312 219.105469 64.527344 219.453125 C 70.246094 221.273438 77.035156 222.496094 95.449219 218.019531 C 96.59375 217.738281 97.242188 216.53125 96.859375 215.417969 C 92.089844 201.570312 95.621094 194.453125 97.21875 186.941406 L 99.765625 188.039062 C 100.839844 188.289062 101.808594 187.828125 102.570312 187.136719 C 103.933594 185.902344 105.503906 184.128906 107 181.140625 C 108.984375 177.179688 109.277344 173.195312 107.199219 172.085938 " fill-opacity="1" fill-rule="nonzero"/><path fill="#000000" d="M 90.179688 135.019531 C 90.421875 134.269531 90.3125 133.453125 89.890625 132.785156 C 88.652344 130.824219 85.585938 127.070312 80.46875 127.453125 C 73.257812 127.992188 70.753906 131.347656 69.625 137.097656 C 68.828125 141.140625 70.457031 147.121094 73.339844 148.632812 C 77.503906 150.808594 81.042969 148.070312 81.042969 148.070312 L 89.78125 136.246094 L 90.179688 135.019531 " fill-opacity="1" fill-rule="nonzero"/><path fill="#000000" d="M 72.21875 135.300781 L 74.03125 130.75 C 74.03125 130.75 69.914062 127.257812 65.132812 127.804688 C 60.265625 128.363281 54.738281 133.035156 55.425781 141.519531 C 55.78125 145.925781 52.070312 148.128906 48.554688 151.417969 C 47.800781 152.121094 47.007812 152.78125 46.207031 153.433594 C 40.429688 158.140625 41.425781 163.21875 41.425781 163.21875 C 41.707031 162.195312 42.402344 161.308594 43.234375 160.570312 C 42.09375 168.164062 47.769531 176.222656 55.148438 177.871094 C 62.128906 179.429688 70.75 174.902344 72.652344 169.585938 C 74.496094 164.417969 73.238281 156.941406 70.75 151.25 C 68.261719 145.558594 66.699219 137.917969 72.21875 135.300781 " fill-opacity="1" fill-rule="nonzero"/><path fill="#ffffff" d="M 89.816406 134.457031 C 89.816406 134.457031 90.546875 136.953125 90.019531 138.777344 C 89.625 140.140625 90.65625 141.953125 91.339844 142.699219 C 91.535156 142.90625 91.472656 143.242188 91.222656 143.375 L 90.339844 143.8125 C 90.015625 143.980469 89.800781 144.308594 89.773438 144.675781 C 89.6875 145.949219 89.40625 148.902344 88.839844 149.628906 C 87.90625 150.820312 84.003906 149.503906 83.164062 149.246094 C 83.078125 149.222656 83.167969 158.324219 83.167969 158.324219 C 83.140625 159.964844 82.730469 161.082031 81.75 161.933594 C 79.5625 163.828125 72.605469 164.511719 72.082031 161.363281 C 72.007812 160.925781 71.601562 160.632812 71.863281 160.277344 C 72.863281 158.925781 73.800781 157.308594 74.128906 155.03125 C 74.550781 152.082031 74.171875 148.769531 74.171875 148.769531 C 74.171875 148.769531 75.960938 148.8125 77.800781 147.015625 C 79.394531 145.460938 80.351562 143.347656 79.957031 142.65625 C 79.0625 141.085938 78.480469 139.570312 79.773438 138.390625 C 81.007812 137.265625 82.210938 138.175781 82.78125 138.855469 C 83.5625 139.789062 86.996094 139.21875 88.472656 136.640625 C 89.949219 134.0625 89.816406 134.457031 89.816406 134.457031 " fill-opacity="1" fill-rule="nonzero"/><path fill="#000000" d="M 72.402344 160.558594 C 72.417969 160.589844 72.433594 160.625 72.449219 160.652344 C 72.527344 160.804688 72.632812 161.011719 72.675781 161.261719 C 72.773438 161.871094 73.234375 162.324219 74.035156 162.613281 C 76.21875 163.398438 80.011719 162.640625 81.355469 161.480469 C 82.179688 160.765625 82.542969 159.816406 82.570312 158.3125 C 82.476562 149.011719 82.476562 149.011719 82.804688 148.765625 L 83.046875 148.585938 L 83.542969 148.734375 C 87.445312 149.953125 88.21875 149.445312 88.363281 149.257812 C 88.679688 148.855469 89.019531 146.914062 89.175781 144.636719 C 89.214844 144.054688 89.546875 143.546875 90.058594 143.277344 L 90.75 142.9375 C 89.960938 141.988281 89.003906 140.128906 89.441406 138.613281 C 89.675781 137.796875 89.628906 136.8125 89.523438 136.027344 C 89.375 136.277344 89.203125 136.574219 88.992188 136.941406 C 87.871094 138.898438 85.835938 139.738281 84.433594 139.859375 C 83.472656 139.945312 82.722656 139.726562 82.320312 139.238281 C 82.175781 139.066406 81.660156 138.503906 81.070312 138.464844 C 80.769531 138.441406 80.476562 138.566406 80.175781 138.835938 C 79.359375 139.582031 79.441406 140.539062 80.480469 142.359375 C 81.109375 143.46875 79.820312 145.882812 78.21875 147.445312 C 76.898438 148.734375 75.589844 149.160156 74.824219 149.300781 C 74.917969 150.40625 75.050781 152.847656 74.722656 155.117188 C 74.363281 157.601562 73.304688 159.328125 72.402344 160.558594 Z M 76.207031 164.128906 C 75.257812 164.128906 74.359375 164.007812 73.625 163.746094 C 72.402344 163.300781 71.664062 162.511719 71.488281 161.460938 C 71.476562 161.390625 71.429688 161.300781 71.378906 161.203125 C 71.253906 160.957031 70.992188 160.445312 71.378906 159.917969 C 72.261719 158.726562 73.207031 157.203125 73.53125 154.945312 C 73.941406 152.105469 73.578125 148.871094 73.574219 148.835938 L 73.496094 148.152344 L 74.1875 148.167969 C 74.246094 148.179688 75.765625 148.164062 77.378906 146.585938 C 78.921875 145.082031 79.570312 143.296875 79.433594 142.949219 C 78.820312 141.871094 77.535156 139.617188 79.367188 137.949219 C 79.914062 137.449219 80.511719 137.21875 81.152344 137.265625 C 82.1875 137.335938 82.957031 138.128906 83.242188 138.46875 C 83.332031 138.578125 83.695312 138.714844 84.328125 138.660156 C 85.53125 138.554688 87.117188 137.796875 87.949219 136.339844 C 88.453125 135.460938 88.828125 134.828125 89.0625 134.457031 C 89.285156 134.101562 89.5625 133.660156 90.0625 133.886719 L 90.5625 134.109375 L 90.445312 134.472656 C 90.609375 135.109375 91.085938 137.25 90.597656 138.945312 C 90.300781 139.96875 91.097656 141.542969 91.785156 142.289062 C 92.003906 142.527344 92.097656 142.847656 92.039062 143.167969 C 91.984375 143.484375 91.789062 143.753906 91.5 143.90625 L 90.605469 144.347656 C 90.476562 144.417969 90.386719 144.558594 90.375 144.71875 C 90.265625 146.324219 89.980469 149.144531 89.3125 150 C 88.390625 151.179688 85.9375 150.699219 83.734375 150.050781 C 83.71875 151.679688 83.746094 155.683594 83.769531 158.316406 C 83.738281 160.191406 83.238281 161.441406 82.140625 162.386719 C 80.890625 163.472656 78.414062 164.128906 76.207031 164.128906 " fill-opacity="1" fill-rule="nonzero"/><path fill="#000000" d="M 81.597656 143.921875 C 80.335938 143.921875 79.277344 143 78.628906 141.304688 C 78.511719 140.992188 78.664062 140.644531 78.976562 140.527344 C 79.285156 140.410156 79.632812 140.5625 79.75 140.875 C 80.125 141.847656 80.8125 142.949219 81.976562 142.671875 C 82.300781 142.59375 82.625 142.796875 82.699219 143.117188 C 82.777344 143.441406 82.578125 143.765625 82.253906 143.84375 C 82.03125 143.894531 81.8125 143.921875 81.597656 143.921875 " fill-opacity="1" fill-rule="nonzero"/></svg>